<svg width="36" height="36" viewBox="0 0 36 36" fill="none" xmlns="http://www.w3.org/2000/svg">
<g clip-path="url(#clip0_1163_119)">
<path d="M31.5115 21.1024L33.9064 18.7075C34.297 18.3169 34.297 17.6833 33.9064 17.2927L31.5115 14.8978C31.2586 14.6449 31.1596 14.2768 31.2523 13.9312L32.1289 10.6597C32.272 10.126 31.9552 9.57699 31.4215 9.43389L28.15 8.55729C27.8044 8.46459 27.5353 8.19459 27.4426 7.84989L26.566 4.57839C26.4229 4.04469 25.8739 3.72789 25.3402 3.87099L22.0687 4.74759C21.7231 4.84029 21.355 4.74129 21.1021 4.48839L18.7072 2.09349C18.3166 1.70289 17.683 1.70289 17.2924 2.09349L14.8975 4.48839C14.6446 4.74129 14.2765 4.84029 13.9309 4.74759L10.6594 3.87099C10.1257 3.72789 9.57674 4.04469 9.43364 4.57839L8.55704 7.84989C8.46434 8.19549 8.19434 8.46459 7.84964 8.55729L4.57814 9.43389C4.04444 9.57699 3.72764 10.126 3.87074 10.6597L4.74734 13.9312C4.84004 14.2768 4.74104 14.6449 4.48814 14.8978L2.09324 17.2927C1.70264 17.6833 1.70264 18.3169 2.09324 18.7075L4.48814 21.1024C4.74104 21.3553 4.84004 21.7234 4.74734 22.069L3.87074 25.3405C3.72764 25.8742 4.04444 26.4232 4.57814 26.5663L7.84964 27.4429C8.19524 27.5356 8.46434 27.8056 8.55704 28.1503L9.43364 31.4218C9.57674 31.9555 10.1257 32.2723 10.6594 32.1292L13.9309 31.2526C14.2765 31.1599 14.6446 31.2589 14.8975 31.5118L17.2924 33.9067C17.683 34.2973 18.3166 34.2973 18.7072 33.9067L21.1021 31.5118C21.355 31.2589 21.7231 31.1599 22.0687 31.2526L25.3402 32.1292C25.8739 32.2723 26.4229 31.9555 26.566 31.4218L27.4426 28.1503C27.5353 27.8047 27.8053 27.5356 28.15 27.4429L31.4215 26.5663C31.9552 26.4232 32.272 25.8742 32.1289 25.3405L31.2523 22.069C31.1596 21.7234 31.2586 21.3553 31.5115 21.1024Z" fill="#FFCD00"/>
<path d="M17.9999 27.5167C23.215 27.5167 27.4427 23.289 27.4427 18.0739C27.4427 12.8588 23.215 8.6311 17.9999 8.6311C12.7848 8.6311 8.55713 12.8588 8.55713 18.0739C8.55713 23.289 12.7848 27.5167 17.9999 27.5167Z" fill="#FFAA00"/>
</g>
<defs>
<clipPath id="clip0_1163_119">
<rect width="36" height="36" fill="white"/>
</clipPath>
</defs>
</svg>
