<svg width="36" height="36" viewBox="0 0 36 36" fill="none" xmlns="http://www.w3.org/2000/svg">
<path d="M13.0496 23.85L7.19964 18L13.0496 12.15C13.1886 12.0127 13.2989 11.8492 13.3742 11.669C13.4495 11.4887 13.4883 11.2953 13.4883 11.1C13.4883 10.9047 13.4495 10.7113 13.3742 10.531C13.2989 10.3508 13.1886 10.1873 13.0496 10.05C12.9124 9.91104 12.7489 9.80072 12.5686 9.72542C12.3884 9.65012 12.195 9.61134 11.9996 9.61134C11.8043 9.61134 11.6109 9.65012 11.4307 9.72542C11.2504 9.80072 11.0869 9.91104 10.9496 10.05L4.06464 16.935C3.92559 17.0738 3.81527 17.2386 3.73999 17.4201C3.66472 17.6015 3.62598 17.7961 3.62598 17.9925C3.62598 18.189 3.66472 18.3835 3.73999 18.5649C3.81527 18.7464 3.92559 18.9112 4.06464 19.05L10.9496 25.95C11.5346 26.535 12.4646 26.535 13.0496 25.95C13.1886 25.8127 13.2989 25.6492 13.3742 25.469C13.4495 25.2887 13.4883 25.0953 13.4883 24.9C13.4883 24.7047 13.4495 24.5113 13.3742 24.331C13.2989 24.1508 13.1886 23.9873 13.0496 23.85ZM22.9496 23.85L28.7996 18L22.9496 12.15C22.8107 12.0127 22.7004 11.8492 22.6251 11.669C22.5498 11.4887 22.511 11.2953 22.511 11.1C22.511 10.9047 22.5498 10.7113 22.6251 10.531C22.7004 10.3508 22.8107 10.1873 22.9496 10.05C23.0869 9.91104 23.2504 9.80072 23.4307 9.72542C23.6109 9.65012 23.8043 9.61134 23.9996 9.61134C24.195 9.61134 24.3884 9.65012 24.5686 9.72542C24.7489 9.80072 24.9124 9.91104 25.0496 10.05L31.9346 16.935C32.5196 17.52 32.5196 18.465 31.9346 19.05L25.0496 25.95C24.9124 26.089 24.7489 26.1993 24.5686 26.2746C24.3884 26.3499 24.195 26.3887 23.9996 26.3887C23.8043 26.3887 23.6109 26.3499 23.4307 26.2746C23.2504 26.1993 23.0869 26.089 22.9496 25.95C22.8107 25.8127 22.7004 25.6492 22.6251 25.469C22.5498 25.2887 22.511 25.0953 22.511 24.9C22.511 24.7047 22.5498 24.5113 22.6251 24.331C22.7004 24.1508 22.8107 23.9873 22.9496 23.85Z" fill="#333333"/>
</svg>
