<svg width="27" height="22" viewBox="0 0 27 22" fill="none" xmlns="http://www.w3.org/2000/svg">
<path d="M6.75 12.375H16.2C16.5825 12.375 16.9034 12.243 17.1625 11.979C17.4218 11.715 17.5509 11.3887 17.55 11C17.55 10.6104 17.4204 10.2836 17.1612 10.0196C16.902 9.75562 16.5816 9.62408 16.2 9.625H6.75C6.3675 9.625 6.04665 9.757 5.78745 10.021C5.52825 10.285 5.3991 10.6113 5.4 11C5.4 11.3896 5.5296 11.7164 5.7888 11.9804C6.048 12.2444 6.3684 12.3759 6.75 12.375ZM6.75 8.25H16.2C16.5825 8.25 16.9034 8.118 17.1625 7.854C17.4218 7.59 17.5509 7.26367 17.55 6.875C17.55 6.48542 17.4204 6.15863 17.1612 5.89463C16.902 5.63063 16.5816 5.49908 16.2 5.5H6.75C6.3675 5.5 6.04665 5.632 5.78745 5.896C5.52825 6.16 5.3991 6.48633 5.4 6.875C5.4 7.26458 5.5296 7.59138 5.7888 7.85538C6.048 8.11938 6.3684 8.25092 6.75 8.25ZM2.7 22C1.9575 22 1.32165 21.7305 0.792452 21.1915C0.263252 20.6525 -0.000897708 20.0053 2.29202e-06 19.25V2.75C2.29202e-06 1.99375 0.264602 1.34613 0.793802 0.807127C1.323 0.268127 1.9584 -0.000914332 2.7 2.33447e-06H24.3C25.0425 2.33447e-06 25.6783 0.269502 26.2075 0.808502C26.7367 1.3475 27.0009 1.99467 27 2.75V19.25C27 20.0062 26.7354 20.6539 26.2062 21.1929C25.677 21.7319 25.0416 22.0009 24.3 22H2.7ZM2.7 19.25H24.3V2.75H2.7V19.25Z" fill="#333333"/>
</svg>
