<svg width="843" height="140" viewBox="0 0 843 140" fill="none" xmlns="http://www.w3.org/2000/svg">
<path d="M0 96.6667V86H10.6667V96.6667H0ZM10.6667 96.6667H21.3333V107.333H10.6667V96.6667ZM21.3333 107.333H42.6667V118H21.3333V107.333ZM42.6667 107.333V96.6667H53.3333V107.333H42.6667ZM53.3333 0.666664H64V96.6667H53.3333V0.666664ZM74.625 96.6667V54H85.2917V96.6667H74.625ZM85.2917 96.6667H95.9583V107.333H85.2917V96.6667ZM85.2917 54V43.3333H95.9583V54H85.2917ZM95.9583 107.333H127.958V118H95.9583V107.333ZM95.9583 43.3333V32.6667H127.958V43.3333H95.9583ZM127.958 107.333V96.6667H138.625V107.333H127.958ZM127.958 43.3333H138.625V54H127.958V43.3333ZM138.625 96.6667V54H149.292V96.6667H138.625ZM160 96.6667V54H170.667V96.6667H160ZM170.667 96.6667H181.333V107.333H170.667V96.6667ZM170.667 54V43.3333H181.333V54H170.667ZM181.333 107.333H213.333V118H181.333V107.333ZM181.333 43.3333V32.6667H213.333V43.3333H181.333ZM213.333 107.333V96.6667H224V107.333H213.333ZM213.333 43.3333H224V54H213.333V43.3333ZM224 96.6667V54H234.667V96.6667H224ZM245.375 118V0.666664H256.042V43.3333H266.708V54H256.042V118H245.375ZM266.708 43.3333V32.6667H298.708V43.3333H266.708ZM298.708 118V43.3333H309.375V118H298.708ZM320 139.333V128.667H341.333V139.333H320ZM320 54V32.6667H330.667V54H320ZM341.333 128.667V118H352V128.667H341.333ZM341.333 96.6667V75.3333H352V96.6667H341.333ZM341.333 75.3333H330.667V54H341.333V75.3333ZM362.667 96.6667V118H352V96.6667H362.667ZM362.667 75.3333H373.333V96.6667H362.667V75.3333ZM384 75.3333H373.333V54H384V75.3333ZM384 54V32.6667H394.667V54H384ZM405.375 96.6667V32.6667H416.042V96.6667H405.375ZM416.042 96.6667H426.708V107.333H416.042V96.6667ZM426.708 107.333H458.708V118H426.708V107.333ZM458.708 107.333V96.6667H469.375V32.6667H480.042V118H469.375V107.333H458.708ZM490.75 118V32.6667H501.417V43.3333H512.083V54H501.417V118H490.75ZM512.083 43.3333V32.6667H544.083V43.3333H512.083ZM544.083 118V43.3333H554.75V118H544.083ZM618.75 118V0.666664H629.417V54H640.083V64.6667H629.417V118H618.75ZM640.083 64.6667H650.75V75.3333H640.083V64.6667ZM640.083 54V43.3333H650.75V54H640.083ZM661.417 96.6667V86H672.083V96.6667H661.417ZM661.417 75.3333V86H650.75V75.3333H661.417ZM661.417 43.3333H650.75V32.6667H661.417V43.3333ZM661.417 32.6667V22H672.083V32.6667H661.417ZM682.75 96.6667V107.333H672.083V96.6667H682.75ZM682.75 107.333H693.417V118H682.75V107.333ZM682.75 11.3333V22H672.083V11.3333H682.75ZM682.75 0.666664H693.417V11.3333H682.75V0.666664ZM714.792 118V32.6667H725.458V118H714.792ZM714.792 22V11.3333H725.458V22H714.792ZM746.75 118V32.6667H757.417V43.3333H768.083V54H757.417V118H746.75ZM832.083 118V43.3333H842.75V118H832.083ZM832.083 43.3333H810.75V32.6667H832.083V43.3333ZM768.083 43.3333V32.6667H789.417V43.3333H768.083ZM789.417 118V43.3333H810.75V54H800.083V118H789.417Z" fill="#6BCEEE"/>
</svg>
