<svg width="779" height="118" viewBox="0 0 779 118" fill="none" xmlns="http://www.w3.org/2000/svg">
<path d="M0 96.6667V22H10.6667V96.6667H0ZM21.3333 96.6667V107.333H10.6667V96.6667H21.3333ZM21.3333 107.333H64V118H21.3333V107.333ZM21.3333 11.3333V22H10.6667V11.3333H21.3333ZM21.3333 0.666664H64V11.3333H21.3333V0.666664ZM42.6667 64.6667V54H85.3333V96.6667H74.6667V64.6667H42.6667ZM64 107.333V96.6667H74.6667V107.333H64ZM64 11.3333H74.6667V22H64V11.3333ZM85.3333 22V32.6667H74.6667V22H85.3333ZM96 96.6667V32.6667H106.667V96.6667H96ZM106.667 96.6667H117.333V107.333H106.667V96.6667ZM117.333 107.333H149.333V118H117.333V107.333ZM149.333 107.333V96.6667H160V32.6667H170.667V118H160V107.333H149.333ZM181.375 96.6667V54H192.042V64.6667H245.375V54H256.042V75.3333H192.042V96.6667H181.375ZM202.708 96.6667V107.333H192.042V96.6667H202.708ZM202.708 107.333H234.708V118H202.708V107.333ZM202.708 43.3333V54H192.042V43.3333H202.708ZM202.708 32.6667H234.708V43.3333H202.708V32.6667ZM245.375 96.6667V107.333H234.708V96.6667H245.375ZM245.375 86H256.042V96.6667H245.375V86ZM245.375 43.3333V54H234.708V43.3333H245.375ZM266.75 107.333V96.6667H277.417V107.333H266.75ZM266.75 64.6667V43.3333H277.417V64.6667H266.75ZM330.75 107.333H320.083V86H330.75V107.333ZM330.75 43.3333V54H320.083V43.3333H330.75ZM277.417 107.333H320.083V118H277.417V107.333ZM277.417 64.6667H298.75V75.3333H277.417V64.6667ZM277.417 43.3333V32.6667H320.083V43.3333H277.417ZM298.75 75.3333H320.083V86H298.75V75.3333ZM341.375 43.3333V32.6667H352.042V11.3333H362.708V32.6667H394.708V43.3333H362.708V107.333H352.042V43.3333H341.375ZM362.708 107.333H384.042V118H362.708V107.333ZM384.042 107.333V96.6667H394.708V107.333H384.042ZM458.75 118V0.666664H469.417V43.3333H480.083V54H469.417V96.6667H480.083V107.333H469.417V118H458.75ZM480.083 107.333H512.083V118H480.083V107.333ZM480.083 43.3333V32.6667H512.083V43.3333H480.083ZM522.75 96.6667V107.333H512.083V96.6667H522.75ZM522.75 43.3333V54H512.083V43.3333H522.75ZM522.75 54H533.417V96.6667H522.75V54ZM544.125 96.6667V54H554.792V96.6667H544.125ZM554.792 96.6667H565.458V107.333H554.792V96.6667ZM554.792 54V43.3333H565.458V54H554.792ZM565.458 107.333H597.458V118H565.458V107.333ZM565.458 43.3333V32.6667H597.458V43.3333H565.458ZM597.458 107.333V96.6667H608.125V107.333H597.458ZM597.458 43.3333H608.125V54H597.458V43.3333ZM608.125 96.6667V54H618.792V96.6667H608.125ZM629.5 96.6667V54H640.167V96.6667H629.5ZM640.167 96.6667H650.833V107.333H640.167V96.6667ZM640.167 54V43.3333H650.833V54H640.167ZM650.833 107.333H682.833V118H650.833V107.333ZM650.833 43.3333V32.6667H682.833V43.3333H650.833ZM682.833 107.333V96.6667H693.5V107.333H682.833ZM682.833 43.3333H693.5V54H682.833V43.3333ZM693.5 96.6667V54H704.167V96.6667H693.5ZM714.875 118V0.666664H725.542V64.6667H746.875V86H736.208V75.3333H725.542V118H714.875ZM757.542 96.6667H768.208V107.333H757.542V96.6667ZM757.542 64.6667H746.875V54H757.542V64.6667ZM757.542 86V96.6667H746.875V86H757.542ZM757.542 54V43.3333H768.208V54H757.542ZM778.875 107.333V118H768.208V107.333H778.875ZM778.875 43.3333H768.208V32.6667H778.875V43.3333Z" fill="#6BCEEE"/>
</svg>
