<svg width="438" height="118" viewBox="0 0 438 118" fill="none" xmlns="http://www.w3.org/2000/svg">
<path d="M0 96.6667V22H10.6667V96.6667H0ZM21.3333 96.6667V107.333H10.6667V96.6667H21.3333ZM21.3333 107.333H64V118H21.3333V107.333ZM21.3333 11.3333V22H10.6667V11.3333H21.3333ZM21.3333 0.666664H64V11.3333H21.3333V0.666664ZM42.6667 64.6667V54H85.3333V96.6667H74.6667V64.6667H42.6667ZM64 107.333V96.6667H74.6667V107.333H64ZM64 11.3333H74.6667V22H64V11.3333ZM85.3333 22V32.6667H74.6667V22H85.3333ZM106.667 118V32.6667H117.333V118H106.667ZM106.667 22V11.3333H117.333V22H106.667ZM138.625 43.3333V32.6667H149.292V11.3333H159.958V32.6667H191.958V43.3333H159.958V107.333H149.292V43.3333H138.625ZM159.958 107.333H181.292V118H159.958V107.333ZM181.292 107.333V96.6667H191.958V107.333H181.292ZM202.625 118V0.666664H213.292V43.3333H223.958V54H213.292V118H202.625ZM223.958 43.3333V32.6667H255.958V43.3333H223.958ZM255.958 118V43.3333H266.625V118H255.958ZM277.25 96.6667V32.6667H287.917V96.6667H277.25ZM287.917 96.6667H298.583V107.333H287.917V96.6667ZM298.583 107.333H330.583V118H298.583V107.333ZM330.583 107.333V96.6667H341.25V32.6667H351.917V118H341.25V107.333H330.583ZM362.625 118V0.666664H373.292V43.3333H383.958V54H373.292V96.6667H383.958V107.333H373.292V118H362.625ZM383.958 107.333H415.958V118H383.958V107.333ZM383.958 43.3333V32.6667H415.958V43.3333H383.958ZM426.625 96.6667V107.333H415.958V96.6667H426.625ZM426.625 43.3333V54H415.958V43.3333H426.625ZM426.625 54H437.292V96.6667H426.625V54Z" fill="#6BCEEE"/>
</svg>
