<svg width="1329" height="134" viewBox="0 0 1329 134" fill="none" xmlns="http://www.w3.org/2000/svg">
<mask id="path-1-outside-1_245_4" maskUnits="userSpaceOnUse" x="0" y="0" width="1329" height="134" fill="black">
<rect fill="white" width="1329" height="134"/>
<path d="M92.2631 85.9112H118.836C116.649 100.487 110.99 111.312 101.859 118.387C92.7279 125.462 80.1797 129 64.2143 129C44.8589 129 30.151 123.281 20.0906 111.844C10.0302 100.407 5 85.4856 5 67.0798C5 46.9717 10.1669 31.598 20.5007 20.9588C30.8345 10.3196 45.4057 5 64.2143 5C78.6488 5 90.2948 8.08537 99.1523 14.2561C108.01 20.4269 113.696 29.3638 116.211 41.0669H89.3106C88.9826 36.4921 86.5768 32.2098 82.0934 28.2201C77.6099 24.2304 71.7049 22.2355 64.3783 22.2355C54.4272 22.2355 46.5812 25.7199 40.8402 32.6885C35.0992 39.6572 32.2287 51.1742 32.2287 67.2394C32.3381 80.3256 35.2086 91.018 40.8402 99.3166C46.4719 107.615 54.0992 111.764 63.7222 111.764C72.4704 111.764 79.1955 109.45 83.8977 104.822C88.5998 100.194 91.3883 93.8906 92.2631 85.9112Z"/>
<path d="M130.646 66.7606C130.646 49.4187 135.567 34.7898 145.408 22.8739C155.25 10.958 170.341 5 190.68 5C210.801 5 225.782 11.0644 235.624 23.1931C245.466 35.3218 250.387 49.8443 250.387 66.7606C250.387 83.4642 245.329 98.0133 235.214 110.408C225.099 122.803 210.254 129 190.68 129C170.997 129 156.07 123.228 145.9 111.685C135.731 100.141 130.646 85.1665 130.646 66.7606ZM157.874 66.7606C157.874 80.2724 160.608 91.151 166.076 99.3964C171.544 107.642 179.745 111.764 190.68 111.764C201.287 111.764 209.352 107.535 214.874 99.0772C220.397 90.619 223.158 79.8468 223.158 66.7606C223.158 54.4191 220.369 43.9129 214.792 35.242C209.215 26.571 201.178 22.2355 190.68 22.2355C179.964 22.2355 171.817 26.172 166.24 34.045C160.663 41.9181 157.874 52.8233 157.874 66.7606Z"/>
<path d="M267.61 126.606V7.39382H325.348C341.313 7.39382 353.205 10.7718 361.024 17.5277C368.842 24.2836 372.752 33.1939 372.752 44.2587C372.752 53.4084 370.51 60.8825 366.027 66.6808C361.543 72.4792 355.419 76.2827 347.655 78.0914C352.795 79.0489 356.978 81.3895 360.204 85.1133C363.429 88.837 365.753 93.3586 367.175 98.6782L375.54 126.606H345.687L336.337 98.6782C334.26 92.7203 330.596 88.172 325.348 85.0335C320.099 81.8949 313.701 80.3256 306.156 80.3256H294.838V126.606H267.61ZM294.838 63.0901H319.935C328.136 63.0901 334.451 61.441 338.88 58.1429C343.309 54.8447 345.523 50.1634 345.523 44.0991C345.523 38.1411 343.445 33.4067 339.29 29.8958C335.135 26.3848 328.737 24.6293 320.099 24.6293H294.838V63.0901Z"/>
<path d="M392.599 7.39382H419.828V126.606H392.599V7.39382Z"/>
<path d="M445.416 7.39382H473.301L527.923 90.6988V7.39382H555.151V126.606H526.61L472.645 43.4607V126.606H445.416V7.39382Z"/>
<path d="M567.617 7.39382H681.945V24.6293H638.478V126.606H611.249V24.6293H567.617V7.39382Z"/>
<path d="M694.74 7.39382H721.968V54.6319H779.05V7.39382H806.279V126.606H779.05V71.8674H721.968V126.606H694.74V7.39382Z"/>
<path d="M831.867 7.39382H859.096V126.606H831.867V7.39382Z"/>
<path d="M879.764 66.7606C879.764 49.4187 884.684 34.7898 894.526 22.8739C904.368 10.958 919.458 5 939.798 5C959.919 5 974.9 11.0644 984.742 23.1931C994.583 35.3218 999.504 49.8443 999.504 66.7606C999.504 83.4642 994.447 98.0133 984.332 110.408C974.217 122.803 959.372 129 939.798 129C920.115 129 905.188 123.228 895.018 111.685C884.848 100.141 879.764 85.1665 879.764 66.7606ZM906.992 66.7606C906.992 80.2724 909.726 91.151 915.194 99.3964C920.661 107.642 928.863 111.764 939.798 111.764C950.405 111.764 958.47 107.535 963.992 99.0772C969.514 90.619 972.276 79.8468 972.276 66.7606C972.276 54.4191 969.487 43.9129 963.91 35.242C958.333 26.571 950.296 22.2355 939.798 22.2355C929.081 22.2355 920.935 26.172 915.358 34.045C909.781 41.9181 906.992 52.8233 906.992 66.7606Z"/>
<path d="M1016.73 7.39382H1044.61L1099.23 90.6988V7.39382H1126.46V126.606H1097.92L1043.96 43.4607V126.606H1016.73V7.39382Z"/>
<path d="M1151.89 7.39382H1179.12V126.606H1151.89V7.39382Z"/>
<path d="M1222.42 126.606H1194.53L1240.63 7.39382H1274.91L1321 126.606H1293.12L1281.8 96.9228H1233.74L1222.42 126.606ZM1275.15 79.6873L1257.69 33.8855L1240.3 79.6873H1275.15Z"/>
</mask>
<path d="M92.2631 85.9112H118.836C116.649 100.487 110.99 111.312 101.859 118.387C92.7279 125.462 80.1797 129 64.2143 129C44.8589 129 30.151 123.281 20.0906 111.844C10.0302 100.407 5 85.4856 5 67.0798C5 46.9717 10.1669 31.598 20.5007 20.9588C30.8345 10.3196 45.4057 5 64.2143 5C78.6488 5 90.2948 8.08537 99.1523 14.2561C108.01 20.4269 113.696 29.3638 116.211 41.0669H89.3106C88.9826 36.4921 86.5768 32.2098 82.0934 28.2201C77.6099 24.2304 71.7049 22.2355 64.3783 22.2355C54.4272 22.2355 46.5812 25.7199 40.8402 32.6885C35.0992 39.6572 32.2287 51.1742 32.2287 67.2394C32.3381 80.3256 35.2086 91.018 40.8402 99.3166C46.4719 107.615 54.0992 111.764 63.7222 111.764C72.4704 111.764 79.1955 109.45 83.8977 104.822C88.5998 100.194 91.3883 93.8906 92.2631 85.9112Z" fill="#1D1D1D"/>
<path d="M130.646 66.7606C130.646 49.4187 135.567 34.7898 145.408 22.8739C155.25 10.958 170.341 5 190.68 5C210.801 5 225.782 11.0644 235.624 23.1931C245.466 35.3218 250.387 49.8443 250.387 66.7606C250.387 83.4642 245.329 98.0133 235.214 110.408C225.099 122.803 210.254 129 190.68 129C170.997 129 156.07 123.228 145.9 111.685C135.731 100.141 130.646 85.1665 130.646 66.7606ZM157.874 66.7606C157.874 80.2724 160.608 91.151 166.076 99.3964C171.544 107.642 179.745 111.764 190.68 111.764C201.287 111.764 209.352 107.535 214.874 99.0772C220.397 90.619 223.158 79.8468 223.158 66.7606C223.158 54.4191 220.369 43.9129 214.792 35.242C209.215 26.571 201.178 22.2355 190.68 22.2355C179.964 22.2355 171.817 26.172 166.24 34.045C160.663 41.9181 157.874 52.8233 157.874 66.7606Z" fill="#1D1D1D"/>
<path d="M267.61 126.606V7.39382H325.348C341.313 7.39382 353.205 10.7718 361.024 17.5277C368.842 24.2836 372.752 33.1939 372.752 44.2587C372.752 53.4084 370.51 60.8825 366.027 66.6808C361.543 72.4792 355.419 76.2827 347.655 78.0914C352.795 79.0489 356.978 81.3895 360.204 85.1133C363.429 88.837 365.753 93.3586 367.175 98.6782L375.54 126.606H345.687L336.337 98.6782C334.26 92.7203 330.596 88.172 325.348 85.0335C320.099 81.8949 313.701 80.3256 306.156 80.3256H294.838V126.606H267.61ZM294.838 63.0901H319.935C328.136 63.0901 334.451 61.441 338.88 58.1429C343.309 54.8447 345.523 50.1634 345.523 44.0991C345.523 38.1411 343.445 33.4067 339.29 29.8958C335.135 26.3848 328.737 24.6293 320.099 24.6293H294.838V63.0901Z" fill="#1D1D1D"/>
<path d="M392.599 7.39382H419.828V126.606H392.599V7.39382Z" fill="#1D1D1D"/>
<path d="M445.416 7.39382H473.301L527.923 90.6988V7.39382H555.151V126.606H526.61L472.645 43.4607V126.606H445.416V7.39382Z" fill="#1D1D1D"/>
<path d="M567.617 7.39382H681.945V24.6293H638.478V126.606H611.249V24.6293H567.617V7.39382Z" fill="#1D1D1D"/>
<path d="M694.74 7.39382H721.968V54.6319H779.05V7.39382H806.279V126.606H779.05V71.8674H721.968V126.606H694.74V7.39382Z" fill="#1D1D1D"/>
<path d="M831.867 7.39382H859.096V126.606H831.867V7.39382Z" fill="#1D1D1D"/>
<path d="M879.764 66.7606C879.764 49.4187 884.684 34.7898 894.526 22.8739C904.368 10.958 919.458 5 939.798 5C959.919 5 974.9 11.0644 984.742 23.1931C994.583 35.3218 999.504 49.8443 999.504 66.7606C999.504 83.4642 994.447 98.0133 984.332 110.408C974.217 122.803 959.372 129 939.798 129C920.115 129 905.188 123.228 895.018 111.685C884.848 100.141 879.764 85.1665 879.764 66.7606ZM906.992 66.7606C906.992 80.2724 909.726 91.151 915.194 99.3964C920.661 107.642 928.863 111.764 939.798 111.764C950.405 111.764 958.47 107.535 963.992 99.0772C969.514 90.619 972.276 79.8468 972.276 66.7606C972.276 54.4191 969.487 43.9129 963.91 35.242C958.333 26.571 950.296 22.2355 939.798 22.2355C929.081 22.2355 920.935 26.172 915.358 34.045C909.781 41.9181 906.992 52.8233 906.992 66.7606Z" fill="#1D1D1D"/>
<path d="M1016.73 7.39382H1044.61L1099.23 90.6988V7.39382H1126.46V126.606H1097.92L1043.96 43.4607V126.606H1016.73V7.39382Z" fill="#1D1D1D"/>
<path d="M1151.89 7.39382H1179.12V126.606H1151.89V7.39382Z" fill="#1D1D1D"/>
<path d="M1222.42 126.606H1194.53L1240.63 7.39382H1274.91L1321 126.606H1293.12L1281.8 96.9228H1233.74L1222.42 126.606ZM1275.15 79.6873L1257.69 33.8855L1240.3 79.6873H1275.15Z" fill="#1D1D1D"/>
<path d="M92.2631 85.9112H118.836C116.649 100.487 110.99 111.312 101.859 118.387C92.7279 125.462 80.1797 129 64.2143 129C44.8589 129 30.151 123.281 20.0906 111.844C10.0302 100.407 5 85.4856 5 67.0798C5 46.9717 10.1669 31.598 20.5007 20.9588C30.8345 10.3196 45.4057 5 64.2143 5C78.6488 5 90.2948 8.08537 99.1523 14.2561C108.01 20.4269 113.696 29.3638 116.211 41.0669H89.3106C88.9826 36.4921 86.5768 32.2098 82.0934 28.2201C77.6099 24.2304 71.7049 22.2355 64.3783 22.2355C54.4272 22.2355 46.5812 25.7199 40.8402 32.6885C35.0992 39.6572 32.2287 51.1742 32.2287 67.2394C32.3381 80.3256 35.2086 91.018 40.8402 99.3166C46.4719 107.615 54.0992 111.764 63.7222 111.764C72.4704 111.764 79.1955 109.45 83.8977 104.822C88.5998 100.194 91.3883 93.8906 92.2631 85.9112Z" stroke="#1D1D1D" stroke-width="10" mask="url(#path-1-outside-1_245_4)"/>
<path d="M130.646 66.7606C130.646 49.4187 135.567 34.7898 145.408 22.8739C155.25 10.958 170.341 5 190.68 5C210.801 5 225.782 11.0644 235.624 23.1931C245.466 35.3218 250.387 49.8443 250.387 66.7606C250.387 83.4642 245.329 98.0133 235.214 110.408C225.099 122.803 210.254 129 190.68 129C170.997 129 156.07 123.228 145.9 111.685C135.731 100.141 130.646 85.1665 130.646 66.7606ZM157.874 66.7606C157.874 80.2724 160.608 91.151 166.076 99.3964C171.544 107.642 179.745 111.764 190.68 111.764C201.287 111.764 209.352 107.535 214.874 99.0772C220.397 90.619 223.158 79.8468 223.158 66.7606C223.158 54.4191 220.369 43.9129 214.792 35.242C209.215 26.571 201.178 22.2355 190.68 22.2355C179.964 22.2355 171.817 26.172 166.24 34.045C160.663 41.9181 157.874 52.8233 157.874 66.7606Z" stroke="#1D1D1D" stroke-width="10" mask="url(#path-1-outside-1_245_4)"/>
<path d="M267.61 126.606V7.39382H325.348C341.313 7.39382 353.205 10.7718 361.024 17.5277C368.842 24.2836 372.752 33.1939 372.752 44.2587C372.752 53.4084 370.51 60.8825 366.027 66.6808C361.543 72.4792 355.419 76.2827 347.655 78.0914C352.795 79.0489 356.978 81.3895 360.204 85.1133C363.429 88.837 365.753 93.3586 367.175 98.6782L375.54 126.606H345.687L336.337 98.6782C334.26 92.7203 330.596 88.172 325.348 85.0335C320.099 81.8949 313.701 80.3256 306.156 80.3256H294.838V126.606H267.61ZM294.838 63.0901H319.935C328.136 63.0901 334.451 61.441 338.88 58.1429C343.309 54.8447 345.523 50.1634 345.523 44.0991C345.523 38.1411 343.445 33.4067 339.29 29.8958C335.135 26.3848 328.737 24.6293 320.099 24.6293H294.838V63.0901Z" stroke="#1D1D1D" stroke-width="10" mask="url(#path-1-outside-1_245_4)"/>
<path d="M392.599 7.39382H419.828V126.606H392.599V7.39382Z" stroke="#1D1D1D" stroke-width="10" mask="url(#path-1-outside-1_245_4)"/>
<path d="M445.416 7.39382H473.301L527.923 90.6988V7.39382H555.151V126.606H526.61L472.645 43.4607V126.606H445.416V7.39382Z" stroke="#1D1D1D" stroke-width="10" mask="url(#path-1-outside-1_245_4)"/>
<path d="M567.617 7.39382H681.945V24.6293H638.478V126.606H611.249V24.6293H567.617V7.39382Z" stroke="#1D1D1D" stroke-width="10" mask="url(#path-1-outside-1_245_4)"/>
<path d="M694.74 7.39382H721.968V54.6319H779.05V7.39382H806.279V126.606H779.05V71.8674H721.968V126.606H694.74V7.39382Z" stroke="#1D1D1D" stroke-width="10" mask="url(#path-1-outside-1_245_4)"/>
<path d="M831.867 7.39382H859.096V126.606H831.867V7.39382Z" stroke="#1D1D1D" stroke-width="10" mask="url(#path-1-outside-1_245_4)"/>
<path d="M879.764 66.7606C879.764 49.4187 884.684 34.7898 894.526 22.8739C904.368 10.958 919.458 5 939.798 5C959.919 5 974.9 11.0644 984.742 23.1931C994.583 35.3218 999.504 49.8443 999.504 66.7606C999.504 83.4642 994.447 98.0133 984.332 110.408C974.217 122.803 959.372 129 939.798 129C920.115 129 905.188 123.228 895.018 111.685C884.848 100.141 879.764 85.1665 879.764 66.7606ZM906.992 66.7606C906.992 80.2724 909.726 91.151 915.194 99.3964C920.661 107.642 928.863 111.764 939.798 111.764C950.405 111.764 958.47 107.535 963.992 99.0772C969.514 90.619 972.276 79.8468 972.276 66.7606C972.276 54.4191 969.487 43.9129 963.91 35.242C958.333 26.571 950.296 22.2355 939.798 22.2355C929.081 22.2355 920.935 26.172 915.358 34.045C909.781 41.9181 906.992 52.8233 906.992 66.7606Z" stroke="#1D1D1D" stroke-width="10" mask="url(#path-1-outside-1_245_4)"/>
<path d="M1016.73 7.39382H1044.61L1099.23 90.6988V7.39382H1126.46V126.606H1097.92L1043.96 43.4607V126.606H1016.73V7.39382Z" stroke="#1D1D1D" stroke-width="10" mask="url(#path-1-outside-1_245_4)"/>
<path d="M1151.89 7.39382H1179.12V126.606H1151.89V7.39382Z" stroke="#1D1D1D" stroke-width="10" mask="url(#path-1-outside-1_245_4)"/>
<path d="M1222.42 126.606H1194.53L1240.63 7.39382H1274.91L1321 126.606H1293.12L1281.8 96.9228H1233.74L1222.42 126.606ZM1275.15 79.6873L1257.69 33.8855L1240.3 79.6873H1275.15Z" stroke="#1D1D1D" stroke-width="10" mask="url(#path-1-outside-1_245_4)"/>
</svg>
