<svg width="699" height="447" viewBox="0 0 699 447" fill="none" xmlns="http://www.w3.org/2000/svg">
<mask id="path-1-outside-1_248_10" maskUnits="userSpaceOnUse" x="0" y="0" width="699" height="447" fill="black">
<rect fill="white" width="699" height="447"/>
<path d="M139.461 82.1458H181.015C177.595 96.4035 168.745 106.993 154.467 113.913C140.188 120.834 120.565 124.295 95.5985 124.295C65.3309 124.295 42.3309 118.701 26.5985 107.513C10.8662 96.3255 3 81.7296 3 63.7253C3 44.0559 11.0799 29.0177 27.2398 18.6106C43.3996 8.20354 66.1859 3 95.5985 3C118.171 3 136.383 6.01805 150.234 12.0542C164.085 18.0903 172.978 26.8322 176.911 38.28H134.844C134.331 33.805 130.569 29.6161 123.558 25.7135C116.546 21.8108 107.312 19.8595 95.855 19.8595C80.2937 19.8595 68.0242 23.2678 59.0465 30.0844C50.0688 36.9011 45.5799 48.1667 45.5799 63.8814C45.7509 76.6821 50.2398 87.1412 59.0465 95.2588C67.8532 103.376 79.7807 107.435 94.829 107.435C108.509 107.435 119.026 105.172 126.379 100.644C133.732 96.1173 138.093 89.9512 139.461 82.1458Z"/>
<path d="M199.483 63.4131C199.483 46.4496 207.178 32.1398 222.569 20.4839C237.959 8.82796 261.558 3 293.364 3C324.829 3 348.256 8.93204 363.647 20.7961C379.037 32.6602 386.732 46.8658 386.732 63.4131C386.732 79.7522 378.823 93.9839 363.006 106.108C347.188 118.232 323.974 124.295 293.364 124.295C262.584 124.295 239.242 118.649 223.338 107.357C207.435 96.0653 199.483 81.4173 199.483 63.4131ZM242.063 63.4131C242.063 76.6301 246.338 87.2713 254.888 95.3368C263.439 103.402 276.264 107.435 293.364 107.435C309.952 107.435 322.563 103.298 331.199 95.0246C339.835 86.751 344.152 76.2138 344.152 63.4131C344.152 51.3409 339.792 41.0639 331.071 32.5821C322.349 24.1004 309.781 19.8595 293.364 19.8595C276.606 19.8595 263.866 23.7101 255.145 31.4113C246.424 39.1126 242.063 49.7798 242.063 63.4131Z"/>
<path d="M413.665 121.953V5.34159H503.955C528.922 5.34159 547.519 8.64584 559.745 15.2543C571.972 21.8628 578.085 30.5788 578.085 41.4021C578.085 50.3522 574.58 57.6632 567.569 63.335C560.558 69.0069 550.981 72.7274 538.84 74.4966C546.877 75.4333 553.418 77.7228 558.463 81.3653C563.507 85.0078 567.141 89.4308 569.364 94.6343L582.446 121.953H535.762L521.141 94.6343C517.892 88.8064 512.164 84.3573 503.955 81.2873C495.747 78.2172 485.743 76.6821 473.944 76.6821H456.245V121.953H413.665ZM456.245 59.8227H495.491C508.316 59.8227 518.191 58.2096 525.117 54.9834C532.043 51.7572 535.506 47.1781 535.506 41.246C535.506 35.4181 532.256 30.7869 525.758 27.3526C519.26 23.9182 509.256 22.2011 495.747 22.2011H456.245V59.8227Z"/>
<path d="M609.123 5.34159H651.703V121.953H609.123V5.34159Z"/>
<path d="M10.6952 165.194H54.3011L139.717 246.682V165.194H182.297V281.806H137.665L53.2751 200.474V281.806H10.6952V165.194Z"/>
<path d="M201.792 165.194H380.576V182.054H312.602V281.806H270.022V182.054H201.792V165.194Z"/>
<path d="M400.584 165.194H443.164V211.402H532.427V165.194H575.007V281.806H532.427V228.261H443.164V281.806H400.584V165.194Z"/>
<path d="M615.022 165.194H657.602V281.806H615.022V165.194Z"/>
<path d="M3 383.119C3 366.155 10.6952 351.845 26.0855 340.189C41.4758 328.533 65.0743 322.705 96.881 322.705C128.346 322.705 151.773 328.638 167.164 340.502C182.554 352.366 190.249 366.571 190.249 383.119C190.249 399.458 182.34 413.689 166.522 425.814C150.704 437.938 127.491 444 96.881 444C66.1004 444 42.7584 438.354 26.855 427.062C10.9517 415.771 3 401.123 3 383.119ZM45.5799 383.119C45.5799 396.336 49.855 406.977 58.4052 415.042C66.9554 423.108 79.7807 427.141 96.881 427.141C113.468 427.141 126.08 423.004 134.716 414.73C143.351 406.456 147.669 395.919 147.669 383.119C147.669 371.046 143.309 360.769 134.587 352.288C125.866 343.806 113.297 339.565 96.881 339.565C80.1227 339.565 67.3829 343.416 58.6617 351.117C49.9405 358.818 45.5799 369.485 45.5799 383.119Z"/>
<path d="M217.182 325.047H260.788L346.204 406.535V325.047H388.784V441.658H344.152L259.762 360.327V441.658H217.182V325.047Z"/>
<path d="M428.543 325.047H471.123V441.658H428.543V325.047Z"/>
<path d="M538.84 441.658H495.234L567.312 325.047H620.922L693 441.658H649.394L631.695 412.623H556.539L538.84 441.658ZM621.307 395.763L593.989 350.961L566.799 395.763H621.307Z"/>
</mask>
<path d="M139.461 82.1458H181.015C177.595 96.4035 168.745 106.993 154.467 113.913C140.188 120.834 120.565 124.295 95.5985 124.295C65.3309 124.295 42.3309 118.701 26.5985 107.513C10.8662 96.3255 3 81.7296 3 63.7253C3 44.0559 11.0799 29.0177 27.2398 18.6106C43.3996 8.20354 66.1859 3 95.5985 3C118.171 3 136.383 6.01805 150.234 12.0542C164.085 18.0903 172.978 26.8322 176.911 38.28H134.844C134.331 33.805 130.569 29.6161 123.558 25.7135C116.546 21.8108 107.312 19.8595 95.855 19.8595C80.2937 19.8595 68.0242 23.2678 59.0465 30.0844C50.0688 36.9011 45.5799 48.1667 45.5799 63.8814C45.7509 76.6821 50.2398 87.1412 59.0465 95.2588C67.8532 103.376 79.7807 107.435 94.829 107.435C108.509 107.435 119.026 105.172 126.379 100.644C133.732 96.1173 138.093 89.9512 139.461 82.1458Z" fill="#161616"/>
<path d="M199.483 63.4131C199.483 46.4496 207.178 32.1398 222.569 20.4839C237.959 8.82796 261.558 3 293.364 3C324.829 3 348.256 8.93204 363.647 20.7961C379.037 32.6602 386.732 46.8658 386.732 63.4131C386.732 79.7522 378.823 93.9839 363.006 106.108C347.188 118.232 323.974 124.295 293.364 124.295C262.584 124.295 239.242 118.649 223.338 107.357C207.435 96.0653 199.483 81.4173 199.483 63.4131ZM242.063 63.4131C242.063 76.6301 246.338 87.2713 254.888 95.3368C263.439 103.402 276.264 107.435 293.364 107.435C309.952 107.435 322.563 103.298 331.199 95.0246C339.835 86.751 344.152 76.2138 344.152 63.4131C344.152 51.3409 339.792 41.0639 331.071 32.5821C322.349 24.1004 309.781 19.8595 293.364 19.8595C276.606 19.8595 263.866 23.7101 255.145 31.4113C246.424 39.1126 242.063 49.7798 242.063 63.4131Z" fill="#161616"/>
<path d="M413.665 121.953V5.34159H503.955C528.922 5.34159 547.519 8.64584 559.745 15.2543C571.972 21.8628 578.085 30.5788 578.085 41.4021C578.085 50.3522 574.58 57.6632 567.569 63.335C560.558 69.0069 550.981 72.7274 538.84 74.4966C546.877 75.4333 553.418 77.7228 558.463 81.3653C563.507 85.0078 567.141 89.4308 569.364 94.6343L582.446 121.953H535.762L521.141 94.6343C517.892 88.8064 512.164 84.3573 503.955 81.2873C495.747 78.2172 485.743 76.6821 473.944 76.6821H456.245V121.953H413.665ZM456.245 59.8227H495.491C508.316 59.8227 518.191 58.2096 525.117 54.9834C532.043 51.7572 535.506 47.1781 535.506 41.246C535.506 35.4181 532.256 30.7869 525.758 27.3526C519.26 23.9182 509.256 22.2011 495.747 22.2011H456.245V59.8227Z" fill="#161616"/>
<path d="M609.123 5.34159H651.703V121.953H609.123V5.34159Z" fill="#161616"/>
<path d="M10.6952 165.194H54.3011L139.717 246.682V165.194H182.297V281.806H137.665L53.2751 200.474V281.806H10.6952V165.194Z" fill="#161616"/>
<path d="M201.792 165.194H380.576V182.054H312.602V281.806H270.022V182.054H201.792V165.194Z" fill="#161616"/>
<path d="M400.584 165.194H443.164V211.402H532.427V165.194H575.007V281.806H532.427V228.261H443.164V281.806H400.584V165.194Z" fill="#161616"/>
<path d="M615.022 165.194H657.602V281.806H615.022V165.194Z" fill="#161616"/>
<path d="M3 383.119C3 366.155 10.6952 351.845 26.0855 340.189C41.4758 328.533 65.0743 322.705 96.881 322.705C128.346 322.705 151.773 328.638 167.164 340.502C182.554 352.366 190.249 366.571 190.249 383.119C190.249 399.458 182.34 413.689 166.522 425.814C150.704 437.938 127.491 444 96.881 444C66.1004 444 42.7584 438.354 26.855 427.062C10.9517 415.771 3 401.123 3 383.119ZM45.5799 383.119C45.5799 396.336 49.855 406.977 58.4052 415.042C66.9554 423.108 79.7807 427.141 96.881 427.141C113.468 427.141 126.08 423.004 134.716 414.73C143.351 406.456 147.669 395.919 147.669 383.119C147.669 371.046 143.309 360.769 134.587 352.288C125.866 343.806 113.297 339.565 96.881 339.565C80.1227 339.565 67.3829 343.416 58.6617 351.117C49.9405 358.818 45.5799 369.485 45.5799 383.119Z" fill="#161616"/>
<path d="M217.182 325.047H260.788L346.204 406.535V325.047H388.784V441.658H344.152L259.762 360.327V441.658H217.182V325.047Z" fill="#161616"/>
<path d="M428.543 325.047H471.123V441.658H428.543V325.047Z" fill="#161616"/>
<path d="M538.84 441.658H495.234L567.312 325.047H620.922L693 441.658H649.394L631.695 412.623H556.539L538.84 441.658ZM621.307 395.763L593.989 350.961L566.799 395.763H621.307Z" fill="#161616"/>
<path d="M139.461 82.1458H181.015C177.595 96.4035 168.745 106.993 154.467 113.913C140.188 120.834 120.565 124.295 95.5985 124.295C65.3309 124.295 42.3309 118.701 26.5985 107.513C10.8662 96.3255 3 81.7296 3 63.7253C3 44.0559 11.0799 29.0177 27.2398 18.6106C43.3996 8.20354 66.1859 3 95.5985 3C118.171 3 136.383 6.01805 150.234 12.0542C164.085 18.0903 172.978 26.8322 176.911 38.28H134.844C134.331 33.805 130.569 29.6161 123.558 25.7135C116.546 21.8108 107.312 19.8595 95.855 19.8595C80.2937 19.8595 68.0242 23.2678 59.0465 30.0844C50.0688 36.9011 45.5799 48.1667 45.5799 63.8814C45.7509 76.6821 50.2398 87.1412 59.0465 95.2588C67.8532 103.376 79.7807 107.435 94.829 107.435C108.509 107.435 119.026 105.172 126.379 100.644C133.732 96.1173 138.093 89.9512 139.461 82.1458Z" stroke="#161616" stroke-width="6" mask="url(#path-1-outside-1_248_10)"/>
<path d="M199.483 63.4131C199.483 46.4496 207.178 32.1398 222.569 20.4839C237.959 8.82796 261.558 3 293.364 3C324.829 3 348.256 8.93204 363.647 20.7961C379.037 32.6602 386.732 46.8658 386.732 63.4131C386.732 79.7522 378.823 93.9839 363.006 106.108C347.188 118.232 323.974 124.295 293.364 124.295C262.584 124.295 239.242 118.649 223.338 107.357C207.435 96.0653 199.483 81.4173 199.483 63.4131ZM242.063 63.4131C242.063 76.6301 246.338 87.2713 254.888 95.3368C263.439 103.402 276.264 107.435 293.364 107.435C309.952 107.435 322.563 103.298 331.199 95.0246C339.835 86.751 344.152 76.2138 344.152 63.4131C344.152 51.3409 339.792 41.0639 331.071 32.5821C322.349 24.1004 309.781 19.8595 293.364 19.8595C276.606 19.8595 263.866 23.7101 255.145 31.4113C246.424 39.1126 242.063 49.7798 242.063 63.4131Z" stroke="#161616" stroke-width="6" mask="url(#path-1-outside-1_248_10)"/>
<path d="M413.665 121.953V5.34159H503.955C528.922 5.34159 547.519 8.64584 559.745 15.2543C571.972 21.8628 578.085 30.5788 578.085 41.4021C578.085 50.3522 574.58 57.6632 567.569 63.335C560.558 69.0069 550.981 72.7274 538.84 74.4966C546.877 75.4333 553.418 77.7228 558.463 81.3653C563.507 85.0078 567.141 89.4308 569.364 94.6343L582.446 121.953H535.762L521.141 94.6343C517.892 88.8064 512.164 84.3573 503.955 81.2873C495.747 78.2172 485.743 76.6821 473.944 76.6821H456.245V121.953H413.665ZM456.245 59.8227H495.491C508.316 59.8227 518.191 58.2096 525.117 54.9834C532.043 51.7572 535.506 47.1781 535.506 41.246C535.506 35.4181 532.256 30.7869 525.758 27.3526C519.26 23.9182 509.256 22.2011 495.747 22.2011H456.245V59.8227Z" stroke="#161616" stroke-width="6" mask="url(#path-1-outside-1_248_10)"/>
<path d="M609.123 5.34159H651.703V121.953H609.123V5.34159Z" stroke="#161616" stroke-width="6" mask="url(#path-1-outside-1_248_10)"/>
<path d="M10.6952 165.194H54.3011L139.717 246.682V165.194H182.297V281.806H137.665L53.2751 200.474V281.806H10.6952V165.194Z" stroke="#161616" stroke-width="6" mask="url(#path-1-outside-1_248_10)"/>
<path d="M201.792 165.194H380.576V182.054H312.602V281.806H270.022V182.054H201.792V165.194Z" stroke="#161616" stroke-width="6" mask="url(#path-1-outside-1_248_10)"/>
<path d="M400.584 165.194H443.164V211.402H532.427V165.194H575.007V281.806H532.427V228.261H443.164V281.806H400.584V165.194Z" stroke="#161616" stroke-width="6" mask="url(#path-1-outside-1_248_10)"/>
<path d="M615.022 165.194H657.602V281.806H615.022V165.194Z" stroke="#161616" stroke-width="6" mask="url(#path-1-outside-1_248_10)"/>
<path d="M3 383.119C3 366.155 10.6952 351.845 26.0855 340.189C41.4758 328.533 65.0743 322.705 96.881 322.705C128.346 322.705 151.773 328.638 167.164 340.502C182.554 352.366 190.249 366.571 190.249 383.119C190.249 399.458 182.34 413.689 166.522 425.814C150.704 437.938 127.491 444 96.881 444C66.1004 444 42.7584 438.354 26.855 427.062C10.9517 415.771 3 401.123 3 383.119ZM45.5799 383.119C45.5799 396.336 49.855 406.977 58.4052 415.042C66.9554 423.108 79.7807 427.141 96.881 427.141C113.468 427.141 126.08 423.004 134.716 414.73C143.351 406.456 147.669 395.919 147.669 383.119C147.669 371.046 143.309 360.769 134.587 352.288C125.866 343.806 113.297 339.565 96.881 339.565C80.1227 339.565 67.3829 343.416 58.6617 351.117C49.9405 358.818 45.5799 369.485 45.5799 383.119Z" stroke="#161616" stroke-width="6" mask="url(#path-1-outside-1_248_10)"/>
<path d="M217.182 325.047H260.788L346.204 406.535V325.047H388.784V441.658H344.152L259.762 360.327V441.658H217.182V325.047Z" stroke="#161616" stroke-width="6" mask="url(#path-1-outside-1_248_10)"/>
<path d="M428.543 325.047H471.123V441.658H428.543V325.047Z" stroke="#161616" stroke-width="6" mask="url(#path-1-outside-1_248_10)"/>
<path d="M538.84 441.658H495.234L567.312 325.047H620.922L693 441.658H649.394L631.695 412.623H556.539L538.84 441.658ZM621.307 395.763L593.989 350.961L566.799 395.763H621.307Z" stroke="#161616" stroke-width="6" mask="url(#path-1-outside-1_248_10)"/>
</svg>
