<svg width="918" height="118" viewBox="0 0 918 118" fill="none" xmlns="http://www.w3.org/2000/svg">
<path d="M0 96.6667V22H10.6667V96.6667H0ZM21.3333 96.6667V107.333H10.6667V96.6667H21.3333ZM21.3333 107.333H64V118H21.3333V107.333ZM21.3333 11.3333V22H10.6667V11.3333H21.3333ZM21.3333 0.666664H64V11.3333H21.3333V0.666664ZM64 107.333V96.6667H74.6667V107.333H64ZM64 11.3333H74.6667V22H64V11.3333ZM85.3333 96.6667H74.6667V86H85.3333V96.6667ZM85.3333 22V32.6667H74.6667V22H85.3333ZM96 96.6667V22H106.667V96.6667H96ZM181.333 96.6667H170.667V22H181.333V96.6667ZM106.667 96.6667H117.333V107.333H106.667V96.6667ZM106.667 22V11.3333H117.333V22H106.667ZM117.333 107.333H160V118H117.333V107.333ZM117.333 11.3333V0.666664H160V11.3333H117.333ZM160 107.333V96.6667H170.667V107.333H160ZM160 11.3333H170.667V22H160V11.3333ZM192 118V0.666664H245.333V11.3333H202.667V64.6667H245.333V75.3333H234.667V86H224V75.3333H202.667V118H192ZM234.667 96.6667V86H245.333V96.6667H234.667ZM256 96.6667V107.333H245.333V96.6667H256ZM256 107.333H266.667V118H256V107.333ZM256 64.6667H245.333V54H256V64.6667ZM256 54V22H266.667V54H256ZM256 11.3333V22H245.333V11.3333H256ZM277.375 118V107.333H288.042V11.3333H277.375V0.666664H309.375V11.3333H298.708V107.333H309.375V118H277.375ZM320 118V0.666664H330.667V11.3333H341.333V32.6667H330.667V118H320ZM341.333 54V32.6667H352V54H341.333ZM352 64.6667V54H362.667V64.6667H352ZM362.667 64.6667H373.333V86H362.667V64.6667ZM373.333 107.333V86H384V0.666664H394.667V118H384V107.333H373.333ZM448.042 118H437.375V11.3333H405.375V0.666664H480.042V11.3333H448.042V118ZM490.75 118V0.666664H501.417V54H554.75V0.666664H565.417V118H554.75V64.6667H501.417V118H490.75ZM576.125 118V107.333H586.792V11.3333H576.125V0.666664H608.125V11.3333H597.458V107.333H608.125V118H576.125ZM618.75 96.6667V22H629.417V96.6667H618.75ZM704.083 96.6667H693.417V22H704.083V96.6667ZM629.417 96.6667H640.083V107.333H629.417V96.6667ZM629.417 22V11.3333H640.083V22H629.417ZM640.083 107.333H682.75V118H640.083V107.333ZM640.083 11.3333V0.666664H682.75V11.3333H640.083ZM682.75 107.333V96.6667H693.417V107.333H682.75ZM682.75 11.3333H693.417V22H682.75V11.3333ZM714.75 118V0.666664H725.417V11.3333H736.083V32.6667H725.417V118H714.75ZM736.083 54V32.6667H746.75V54H736.083ZM746.75 64.6667V54H757.417V64.6667H746.75ZM757.417 64.6667H768.083V86H757.417V64.6667ZM768.083 107.333V86H778.75V0.666664H789.417V118H778.75V107.333H768.083ZM800.125 118V107.333H810.792V11.3333H800.125V0.666664H832.125V11.3333H821.458V107.333H832.125V118H800.125ZM842.75 118V86H853.417V118H842.75ZM853.417 86V43.3333H864.083V75.3333H896.083V43.3333H906.75V86H853.417ZM874.75 0.666664H885.417V11.3333H874.75V0.666664ZM864.083 43.3333V11.3333H874.75V43.3333H864.083ZM885.417 43.3333V11.3333H896.083V43.3333H885.417ZM906.75 118V86H917.417V118H906.75Z" fill="#F72191"/>
</svg>
