<svg width="277" height="27" viewBox="0 0 277 27" fill="none" xmlns="http://www.w3.org/2000/svg">
<path d="M23.1172 20.2344C22.8711 20.6562 22.5605 21.3418 22.1855 22.291C21.8105 23.2402 21.5234 24.0547 21.3242 24.7344C20.3047 25.25 19.1211 25.6484 17.7734 25.9297C16.4375 26.2109 15.1016 26.3516 13.7656 26.3516C9.85156 26.3516 6.71094 25.2148 4.34375 22.9414C1.97656 20.6562 0.792969 17.5977 0.792969 13.7656C0.792969 9.80469 2.02344 6.59375 4.48438 4.13281C6.94531 1.67188 10.1562 0.441406 14.1172 0.441406C15.4883 0.441406 16.8418 0.564453 18.1777 0.810547C19.5254 1.04492 20.8379 1.40234 22.1152 1.88281C22.0918 2.09375 22.0742 2.32812 22.0625 2.58594C22.0508 2.84375 22.0449 3.08984 22.0449 3.32422C22.0449 3.94531 22.0742 4.63086 22.1328 5.38086C22.2031 6.11914 22.291 6.81055 22.3965 7.45508L21.5 7.64844C21.1836 5.72656 20.3633 4.25586 19.0391 3.23633C17.7266 2.2168 15.9688 1.70703 13.7656 1.70703C10.8242 1.70703 8.58594 2.66797 7.05078 4.58984C5.52734 6.51172 4.76562 9.33008 4.76562 13.0449C4.76562 16.502 5.66211 19.3496 7.45508 21.5879C9.24805 23.8145 11.5918 24.9277 14.4863 24.9277C16.1504 24.9277 17.6855 24.4824 19.0918 23.5918C20.5098 22.6895 21.6113 21.4531 22.3965 19.8828L23.1172 20.2344ZM47.252 14.1172C47.252 10.3672 46.4199 7.36133 44.7559 5.09961C43.0918 2.83789 40.9238 1.70703 38.252 1.70703C35.8496 1.70703 33.8691 2.71484 32.3105 4.73047C30.752 6.73438 29.9727 9.38281 29.9727 12.6758C29.9727 16.4258 30.7988 19.4199 32.4512 21.6582C34.1152 23.8848 36.2891 24.998 38.9727 24.998C41.3867 24.998 43.3672 24.0078 44.9141 22.0273C46.4727 20.0352 47.252 17.3984 47.252 14.1172ZM51.207 13.3965C51.207 17.0059 49.9824 20.0703 47.5332 22.5898C45.0957 25.0977 42.1191 26.3516 38.6035 26.3516C34.8887 26.3516 31.8594 25.1328 29.5156 22.6953C27.1719 20.2578 26 17.1582 26 13.3965C26 9.83398 27.2363 6.78711 29.709 4.25586C32.1934 1.71289 35.1582 0.441406 38.6035 0.441406C42.2715 0.441406 45.2891 1.67188 47.6562 4.13281C50.0234 6.58203 51.207 9.66992 51.207 13.3965ZM69.7344 8C69.7344 6.24219 69.1367 4.8125 67.9414 3.71094C66.7461 2.60937 65.1875 2.05859 63.2656 2.05859C62.9141 2.05859 62.5332 2.07617 62.123 2.11133C61.7246 2.14648 61.3496 2.1875 60.998 2.23438C60.9746 3.61719 60.957 5.11719 60.9453 6.73438C60.9336 8.33984 60.9277 10.6602 60.9277 13.6953C61.0684 13.6953 61.2734 13.707 61.543 13.7305C62.4805 13.8008 63.2305 13.8359 63.793 13.8359C64.5898 13.8359 65.1758 13.8301 65.5508 13.8184C65.9375 13.8066 66.2539 13.7891 66.5 13.7656C67.5664 13.1445 68.3691 12.3477 68.9082 11.375C69.459 10.4023 69.7344 9.27734 69.7344 8ZM78.5586 25.9297L78.0312 26C77.5625 26.0586 77.1348 26.0996 76.748 26.123C76.373 26.1582 76.0156 26.1758 75.6758 26.1758C74.4805 26.1758 73.4961 25.9883 72.7227 25.6133C71.9492 25.2383 71.2578 24.5879 70.6484 23.6621C70.2852 23.123 69.7812 22.3496 69.1367 21.3418C68.9258 21.0137 68.7676 20.7676 68.6621 20.6035L67.0449 18.0723C66.4941 17.2285 66.0312 16.5371 65.6562 15.998C65.293 15.459 65.0586 15.1309 64.9531 15.0137C64.543 15.0723 64.0742 15.1191 63.5469 15.1543C63.0312 15.1895 62.5156 15.207 62 15.207H60.9277V19.5137C60.9277 21.9863 61.0977 23.5742 61.4375 24.2773C61.7891 24.9688 62.5156 25.3145 63.6172 25.3145C63.7695 25.3145 63.8809 25.3145 63.9512 25.3145C64.0332 25.3027 64.1035 25.2969 64.1621 25.2969V26.0352C64.0684 26.0352 63.9277 26.0293 63.7402 26.0176C61.6543 25.9121 60.1719 25.8594 59.293 25.8594C58.4258 25.8594 56.9492 25.9121 54.8633 26.0176C54.6641 26.0293 54.5234 26.0352 54.4414 26.0352V25.2441C54.5 25.2559 54.582 25.2676 54.6875 25.2793C54.8047 25.2793 54.9629 25.2793 55.1621 25.2793C56.1934 25.2793 56.8672 24.9102 57.1836 24.1719C57.5117 23.4219 57.6758 21.9336 57.6758 19.707V6.55859C57.6758 4.40234 57.5234 3.02539 57.2188 2.42773C56.9258 1.81836 56.2402 1.51367 55.1621 1.51367C55.0098 1.51367 54.8984 1.51953 54.8281 1.53125C54.7578 1.53125 54.6875 1.53711 54.6172 1.54883V0.792969L54.8281 0.810547C56.7852 0.927734 58.2148 0.986328 59.1172 0.986328C59.7148 0.986328 60.5527 0.957031 61.6309 0.898438C62.7207 0.828125 63.5645 0.792969 64.1621 0.792969C66.8691 0.792969 69.0723 1.41406 70.7715 2.65625C72.4824 3.88672 73.3379 5.48633 73.3379 7.45508C73.3379 8.82617 72.9336 10.0684 72.125 11.1816C71.3164 12.2832 70.1035 13.2617 68.4863 14.1172L72.793 20.6035C74.1172 22.5723 75.1016 23.8438 75.7461 24.418C76.4023 24.9922 77.1582 25.2793 78.0137 25.2793H78.5586V25.9297ZM88.1035 26C88.0215 26 87.8926 25.9941 87.7168 25.9824C85.6074 25.877 84.0547 25.8242 83.0586 25.8242C82.0742 25.8242 80.5273 25.877 78.418 25.9824C78.2305 25.9941 78.1016 26 78.0312 26V25.2441C78.0898 25.2559 78.1602 25.2676 78.2422 25.2793C78.3359 25.2793 78.5059 25.2793 78.752 25.2793C79.8652 25.2793 80.5918 24.9336 80.9316 24.2422C81.2715 23.5508 81.4414 21.9746 81.4414 19.5137V6.55859C81.4414 4.37891 81.2832 2.99609 80.9668 2.41016C80.6504 1.8125 79.9121 1.51367 78.752 1.51367C78.5996 1.51367 78.4883 1.51953 78.418 1.53125C78.3477 1.53125 78.2773 1.53711 78.207 1.54883V0.792969C78.2891 0.804688 78.4062 0.810547 78.5586 0.810547C80.7148 0.927734 82.2148 0.986328 83.0586 0.986328C83.9258 0.986328 85.4023 0.933594 87.4883 0.828125C87.6758 0.816406 87.8223 0.804688 87.9277 0.792969V1.54883C87.8574 1.53711 87.7871 1.53125 87.7168 1.53125C87.6465 1.51953 87.5352 1.51367 87.3828 1.51367C86.2227 1.51367 85.4844 1.8125 85.168 2.41016C84.8516 2.99609 84.6934 4.37891 84.6934 6.55859V19.5137C84.6934 21.9746 84.8633 23.5508 85.2031 24.2422C85.543 24.9336 86.2695 25.2793 87.3828 25.2793C87.6289 25.2793 87.793 25.2793 87.875 25.2793C87.9688 25.2676 88.0449 25.2559 88.1035 25.2441V26ZM116.932 1.54883C116.803 1.52539 116.668 1.51367 116.527 1.51367C116.105 1.51367 115.719 1.5957 115.367 1.75977C115.027 1.92383 114.77 2.14648 114.594 2.42773C114.301 2.86133 114.107 3.95703 114.014 5.71484C113.92 7.47266 113.873 10.1562 113.873 13.7656V20.9551C113.873 21.9512 113.908 22.9473 113.979 23.9434C114.049 24.9395 114.131 25.6836 114.225 26.1758H112.959C112.889 26.0234 112.748 25.8066 112.537 25.5254C112.326 25.2441 112.051 24.8984 111.711 24.4883L95.5039 5.11719V13.0449C95.5039 17.1465 95.5449 19.959 95.627 21.4824C95.7207 23.0059 95.9199 23.9727 96.2246 24.3828C96.4707 24.6992 96.7695 24.9277 97.1211 25.0684C97.4727 25.209 97.9531 25.2793 98.5625 25.2793C98.8086 25.2793 99.0488 25.2676 99.2832 25.2441V26C99.0605 25.9883 98.7266 25.9707 98.2812 25.9473C96.7227 25.8652 95.6152 25.8242 94.959 25.8242C94.4199 25.8242 93.4062 25.8652 91.918 25.9473C91.4258 25.9707 91.0625 25.9883 90.8281 26V25.2441C90.8984 25.2559 90.9746 25.2676 91.0566 25.2793C91.1387 25.2793 91.2559 25.2793 91.4082 25.2793C91.8184 25.2793 92.1934 25.2031 92.5332 25.0508C92.8848 24.8867 93.1543 24.6641 93.3418 24.3828C93.6348 23.9492 93.8281 22.8535 93.9219 21.0957C94.0156 19.3379 94.0625 16.6543 94.0625 13.0449V6.20703C94.0625 4.42578 93.875 3.20117 93.5 2.5332C93.1367 1.85352 92.4277 1.51367 91.373 1.51367C91.2441 1.51367 91.0625 1.52539 90.8281 1.54883V0.792969C90.8633 0.804688 90.9219 0.810547 91.0039 0.810547C92.3867 0.927734 93.418 0.986328 94.0977 0.986328C94.4258 0.986328 94.8418 0.96875 95.3457 0.933594C95.8613 0.898438 96.3945 0.857422 96.9453 0.810547C97.1328 1.26758 97.3848 1.73633 97.7012 2.2168C98.0293 2.69727 98.498 3.30664 99.1074 4.04492L112.432 20.0586V13.7656C112.432 9.78125 112.396 6.98633 112.326 5.38086C112.268 3.76367 112.121 2.7793 111.887 2.42773C111.664 2.08789 111.371 1.85352 111.008 1.72461C110.645 1.58398 110.158 1.51367 109.549 1.51367L109.18 1.54883V0.792969C110.223 0.863281 111.02 0.916016 111.57 0.951172C112.133 0.974609 112.596 0.986328 112.959 0.986328C113.369 0.986328 113.914 0.96875 114.594 0.933594C115.285 0.898438 116.064 0.857422 116.932 0.810547V1.54883ZM140.346 6.01367L139.625 6.20703C139.156 4.58984 138.611 3.55859 137.99 3.11328C137.381 2.65625 136.309 2.42773 134.773 2.42773H131.24C131.193 4.2207 131.17 5.59766 131.17 6.55859V19.5137C131.17 21.998 131.352 23.5801 131.715 24.2598C132.078 24.9395 132.857 25.2793 134.053 25.2793C134.193 25.2793 134.316 25.2793 134.422 25.2793C134.527 25.2676 134.645 25.2559 134.773 25.2441V26C133.379 25.9297 132.295 25.8828 131.521 25.8594C130.76 25.8359 130.104 25.8242 129.553 25.8242C128.99 25.8242 128.322 25.8359 127.549 25.8594C126.787 25.8828 125.715 25.9297 124.332 26V25.2441C124.449 25.2559 124.561 25.2676 124.666 25.2793C124.771 25.2793 124.9 25.2793 125.053 25.2793C126.236 25.2793 127.01 24.9395 127.373 24.2598C127.736 23.5801 127.918 21.998 127.918 19.5137V6.55859C127.918 5.59766 127.895 4.2207 127.848 2.42773H124.508C122.938 2.42773 121.789 2.68555 121.062 3.20117C120.348 3.70508 119.756 4.70703 119.287 6.20703L118.566 6.01367C118.824 5.05273 119.006 4.16797 119.111 3.35938C119.229 2.55078 119.287 1.63672 119.287 0.617188C119.885 0.863281 120.6 1.01563 121.432 1.07422C122.275 1.13281 123.6 1.16211 125.404 1.16211H133.332C135.207 1.16211 136.613 1.13281 137.551 1.07422C138.488 1.00391 139.338 0.851562 140.1 0.617188C140.029 0.980469 139.994 1.51953 139.994 2.23438C139.994 2.79688 140.018 3.37695 140.064 3.97461C140.123 4.56055 140.217 5.24023 140.346 6.01367ZM167.891 26C167.809 26 167.668 25.9941 167.469 25.9824C165.383 25.877 163.906 25.8242 163.039 25.8242C162.23 25.8242 160.912 25.8711 159.084 25.9648C158.768 25.9766 158.527 25.9883 158.363 26V25.2441C158.422 25.2559 158.486 25.2676 158.557 25.2793C158.639 25.2793 158.75 25.2793 158.891 25.2793C159.934 25.2793 160.613 24.9277 160.93 24.2246C161.258 23.5215 161.422 21.9512 161.422 19.5137L161.404 13.9414C160.795 13.9062 160.033 13.8828 159.119 13.8711C158.217 13.8477 156.822 13.8359 154.936 13.8359C153.049 13.8359 151.648 13.8477 150.734 13.8711C149.832 13.8828 149.076 13.9062 148.467 13.9414V19.5137C148.467 21.9512 148.625 23.5215 148.941 24.2246C149.258 24.9277 149.938 25.2793 150.98 25.2793C151.133 25.2793 151.244 25.2793 151.314 25.2793C151.385 25.2676 151.455 25.2559 151.525 25.2441V26C151.361 25.9883 151.121 25.9766 150.805 25.9648C148.965 25.8711 147.641 25.8242 146.832 25.8242C145.965 25.8242 144.488 25.877 142.402 25.9824C142.203 25.9941 142.062 26 141.98 26V25.2441C142.039 25.2559 142.121 25.2676 142.227 25.2793C142.344 25.2793 142.502 25.2793 142.701 25.2793C143.744 25.2793 144.424 24.9277 144.74 24.2246C145.057 23.5215 145.215 21.9512 145.215 19.5137V6.55859C145.215 4.40234 145.062 3.02539 144.758 2.42773C144.465 1.81836 143.779 1.51367 142.701 1.51367C142.549 1.51367 142.438 1.51953 142.367 1.53125C142.297 1.53125 142.227 1.53711 142.156 1.54883V0.810547C143.293 0.869141 144.23 0.916016 144.969 0.951172C145.707 0.974609 146.328 0.986328 146.832 0.986328C147.746 0.986328 149.176 0.927734 151.121 0.810547L151.332 0.792969V1.54883C151.215 1.52539 151.098 1.51367 150.98 1.51367C149.902 1.51367 149.211 1.81836 148.906 2.42773C148.613 3.02539 148.467 4.40234 148.467 6.55859V12.3945C149.076 12.4297 149.838 12.459 150.752 12.4824C151.666 12.4941 153.061 12.5 154.936 12.5C156.811 12.5 158.205 12.4941 159.119 12.4824C160.033 12.459 160.795 12.4297 161.404 12.3945L161.422 6.55859C161.422 4.40234 161.27 3.02539 160.965 2.42773C160.672 1.81836 159.98 1.51367 158.891 1.51367C158.773 1.51367 158.656 1.52539 158.539 1.54883V0.792969L158.75 0.810547C160.707 0.927734 162.137 0.986328 163.039 0.986328C163.543 0.986328 164.164 0.974609 164.902 0.951172C165.641 0.916016 166.578 0.869141 167.715 0.810547V1.54883C167.645 1.53711 167.574 1.53125 167.504 1.53125C167.434 1.51953 167.328 1.51367 167.188 1.51367C166.098 1.51367 165.4 1.81836 165.096 2.42773C164.803 3.02539 164.656 4.40234 164.656 6.55859V19.5137C164.656 21.9512 164.814 23.5215 165.131 24.2246C165.459 24.9277 166.145 25.2793 167.188 25.2793C167.375 25.2793 167.521 25.2793 167.627 25.2793C167.744 25.2676 167.832 25.2559 167.891 25.2441V26ZM180.67 26C180.588 26 180.459 25.9941 180.283 25.9824C178.174 25.877 176.621 25.8242 175.625 25.8242C174.641 25.8242 173.094 25.877 170.984 25.9824C170.797 25.9941 170.668 26 170.598 26V25.2441C170.656 25.2559 170.727 25.2676 170.809 25.2793C170.902 25.2793 171.072 25.2793 171.318 25.2793C172.432 25.2793 173.158 24.9336 173.498 24.2422C173.838 23.5508 174.008 21.9746 174.008 19.5137V6.55859C174.008 4.37891 173.85 2.99609 173.533 2.41016C173.217 1.8125 172.479 1.51367 171.318 1.51367C171.166 1.51367 171.055 1.51953 170.984 1.53125C170.914 1.53125 170.844 1.53711 170.773 1.54883V0.792969C170.855 0.804688 170.973 0.810547 171.125 0.810547C173.281 0.927734 174.781 0.986328 175.625 0.986328C176.492 0.986328 177.969 0.933594 180.055 0.828125C180.242 0.816406 180.389 0.804688 180.494 0.792969V1.54883C180.424 1.53711 180.354 1.53125 180.283 1.53125C180.213 1.51953 180.102 1.51367 179.949 1.51367C178.789 1.51367 178.051 1.8125 177.734 2.41016C177.418 2.99609 177.26 4.37891 177.26 6.55859V19.5137C177.26 21.9746 177.43 23.5508 177.77 24.2422C178.109 24.9336 178.836 25.2793 179.949 25.2793C180.195 25.2793 180.359 25.2793 180.441 25.2793C180.535 25.2676 180.611 25.2559 180.67 25.2441V26ZM204.998 14.1172C204.998 10.3672 204.166 7.36133 202.502 5.09961C200.838 2.83789 198.67 1.70703 195.998 1.70703C193.596 1.70703 191.615 2.71484 190.057 4.73047C188.498 6.73438 187.719 9.38281 187.719 12.6758C187.719 16.4258 188.545 19.4199 190.197 21.6582C191.861 23.8848 194.035 24.998 196.719 24.998C199.133 24.998 201.113 24.0078 202.66 22.0273C204.219 20.0352 204.998 17.3984 204.998 14.1172ZM208.953 13.3965C208.953 17.0059 207.729 20.0703 205.279 22.5898C202.842 25.0977 199.865 26.3516 196.35 26.3516C192.635 26.3516 189.605 25.1328 187.262 22.6953C184.918 20.2578 183.746 17.1582 183.746 13.3965C183.746 9.83398 184.982 6.78711 187.455 4.25586C189.939 1.71289 192.904 0.441406 196.35 0.441406C200.018 0.441406 203.035 1.67188 205.402 4.13281C207.77 6.58203 208.953 9.66992 208.953 13.3965ZM238.291 1.54883C238.162 1.52539 238.027 1.51367 237.887 1.51367C237.465 1.51367 237.078 1.5957 236.727 1.75977C236.387 1.92383 236.129 2.14648 235.953 2.42773C235.66 2.86133 235.467 3.95703 235.373 5.71484C235.279 7.47266 235.232 10.1562 235.232 13.7656V20.9551C235.232 21.9512 235.268 22.9473 235.338 23.9434C235.408 24.9395 235.49 25.6836 235.584 26.1758H234.318C234.248 26.0234 234.107 25.8066 233.896 25.5254C233.686 25.2441 233.41 24.8984 233.07 24.4883L216.863 5.11719V13.0449C216.863 17.1465 216.904 19.959 216.986 21.4824C217.08 23.0059 217.279 23.9727 217.584 24.3828C217.83 24.6992 218.129 24.9277 218.48 25.0684C218.832 25.209 219.312 25.2793 219.922 25.2793C220.168 25.2793 220.408 25.2676 220.643 25.2441V26C220.42 25.9883 220.086 25.9707 219.641 25.9473C218.082 25.8652 216.975 25.8242 216.318 25.8242C215.779 25.8242 214.766 25.8652 213.277 25.9473C212.785 25.9707 212.422 25.9883 212.188 26V25.2441C212.258 25.2559 212.334 25.2676 212.416 25.2793C212.498 25.2793 212.615 25.2793 212.768 25.2793C213.178 25.2793 213.553 25.2031 213.893 25.0508C214.244 24.8867 214.514 24.6641 214.701 24.3828C214.994 23.9492 215.188 22.8535 215.281 21.0957C215.375 19.3379 215.422 16.6543 215.422 13.0449V6.20703C215.422 4.42578 215.234 3.20117 214.859 2.5332C214.496 1.85352 213.787 1.51367 212.732 1.51367C212.604 1.51367 212.422 1.52539 212.188 1.54883V0.792969C212.223 0.804688 212.281 0.810547 212.363 0.810547C213.746 0.927734 214.777 0.986328 215.457 0.986328C215.785 0.986328 216.201 0.96875 216.705 0.933594C217.221 0.898438 217.754 0.857422 218.305 0.810547C218.492 1.26758 218.744 1.73633 219.061 2.2168C219.389 2.69727 219.857 3.30664 220.467 4.04492L233.791 20.0586V13.7656C233.791 9.78125 233.756 6.98633 233.686 5.38086C233.627 3.76367 233.48 2.7793 233.246 2.42773C233.023 2.08789 232.73 1.85352 232.367 1.72461C232.004 1.58398 231.518 1.51367 230.908 1.51367L230.539 1.54883V0.792969C231.582 0.863281 232.379 0.916016 232.93 0.951172C233.492 0.974609 233.955 0.986328 234.318 0.986328C234.729 0.986328 235.273 0.96875 235.953 0.933594C236.645 0.898438 237.424 0.857422 238.291 0.810547V1.54883ZM251.264 26C251.182 26 251.053 25.9941 250.877 25.9824C248.768 25.877 247.215 25.8242 246.219 25.8242C245.234 25.8242 243.688 25.877 241.578 25.9824C241.391 25.9941 241.262 26 241.191 26V25.2441C241.25 25.2559 241.32 25.2676 241.402 25.2793C241.496 25.2793 241.666 25.2793 241.912 25.2793C243.025 25.2793 243.752 24.9336 244.092 24.2422C244.432 23.5508 244.602 21.9746 244.602 19.5137V6.55859C244.602 4.37891 244.443 2.99609 244.127 2.41016C243.811 1.8125 243.072 1.51367 241.912 1.51367C241.76 1.51367 241.648 1.51953 241.578 1.53125C241.508 1.53125 241.438 1.53711 241.367 1.54883V0.792969C241.449 0.804688 241.566 0.810547 241.719 0.810547C243.875 0.927734 245.375 0.986328 246.219 0.986328C247.086 0.986328 248.562 0.933594 250.648 0.828125C250.836 0.816406 250.982 0.804688 251.088 0.792969V1.54883C251.018 1.53711 250.947 1.53125 250.877 1.53125C250.807 1.51953 250.695 1.51367 250.543 1.51367C249.383 1.51367 248.645 1.8125 248.328 2.41016C248.012 2.99609 247.854 4.37891 247.854 6.55859V19.5137C247.854 21.9746 248.023 23.5508 248.363 24.2422C248.703 24.9336 249.43 25.2793 250.543 25.2793C250.789 25.2793 250.953 25.2793 251.035 25.2793C251.129 25.2676 251.205 25.2559 251.264 25.2441V26ZM267.014 15.0137L263.34 3.85156L259.209 15.0137C259.619 15.0723 260.199 15.1191 260.949 15.1543C261.711 15.1895 262.391 15.207 262.988 15.207C263.562 15.207 264.242 15.1895 265.027 15.1543C265.812 15.1191 266.475 15.0723 267.014 15.0137ZM276.488 26C276.289 25.9883 275.973 25.9707 275.539 25.9473C273.934 25.8652 272.75 25.8242 271.988 25.8242C271.062 25.8242 269.762 25.8652 268.086 25.9473C267.582 25.9707 267.201 25.9883 266.943 26V25.2441C267.061 25.2676 267.184 25.2793 267.312 25.2793C268.086 25.2793 268.666 25.1445 269.053 24.875C269.451 24.6055 269.65 24.2012 269.65 23.6621C269.65 23.1816 269.51 22.4609 269.229 21.5C268.947 20.5273 268.361 18.8457 267.471 16.4551C266.838 16.4199 266.152 16.3965 265.414 16.3848C264.676 16.3613 263.867 16.3496 262.988 16.3496C262.098 16.3496 261.289 16.3613 260.562 16.3848C259.848 16.3965 259.221 16.4199 258.682 16.4551C258.553 16.7832 258.371 17.2461 258.137 17.8438C256.93 20.9844 256.326 22.9238 256.326 23.6621C256.326 24.2012 256.52 24.6055 256.906 24.875C257.305 25.1445 257.891 25.2793 258.664 25.2793C258.781 25.2793 258.904 25.2676 259.033 25.2441L259.016 26C258.312 25.9414 257.615 25.9004 256.924 25.877C256.244 25.8418 255.623 25.8242 255.061 25.8242C254.51 25.8242 253.889 25.8418 253.197 25.877C252.518 25.9004 251.826 25.9414 251.123 26L251.105 25.2441C251.223 25.2676 251.346 25.2793 251.475 25.2793C252.002 25.2793 252.5 25.1094 252.969 24.7695C253.449 24.418 253.848 23.9258 254.164 23.293C254.598 22.4375 255.447 20.416 256.713 17.2285C257.979 14.041 260.129 8.50391 263.164 0.617188H265.695C267.383 5.67969 268.936 10.2793 270.354 14.416C271.783 18.5527 272.809 21.4531 273.43 23.1172C273.723 23.9023 274.074 24.459 274.484 24.7871C274.906 25.1152 275.451 25.2793 276.119 25.2793C276.248 25.2793 276.371 25.2676 276.488 25.2441V26Z" fill="#E7E7E7"/>
</svg>
