<svg width="300" height="281" viewBox="0 0 300 281" fill="none" xmlns="http://www.w3.org/2000/svg">
<path d="M142.276 153.667C159.537 137.346 146.836 95.8836 113.907 61.0576C80.9786 26.2316 40.2917 11.23 23.0307 27.5506C5.76969 43.8713 18.4709 85.3339 51.3996 120.16C84.3284 154.986 125.015 169.988 142.276 153.667Z" fill="#88D7D7"/>
<path d="M114.13 195.314C143.199 171.534 157.21 140.577 145.424 126.169C133.638 111.761 100.518 119.358 71.4481 143.137C42.3785 166.917 28.3676 197.874 40.1538 212.282C51.94 226.69 85.0602 219.093 114.13 195.314Z" fill="#88D7D7"/>
<path d="M248.601 120.155C281.53 85.3292 294.231 43.8667 276.97 27.546C259.709 11.2253 219.022 26.2269 186.093 61.053C153.165 95.879 140.464 137.342 157.725 153.662C174.986 169.983 215.672 154.981 248.601 120.155Z" fill="#88D7D7"/>
<path d="M259.845 212.288C271.631 197.88 257.62 166.923 228.551 143.143C199.481 119.363 166.361 111.766 154.575 126.174C142.788 140.583 156.799 171.54 185.869 195.319C214.939 219.099 248.059 226.696 259.845 212.288Z" fill="#88D7D7"/>
<path d="M148.92 120.262C160.489 120.262 169.868 110.884 169.868 99.3149C169.868 87.7459 160.489 78.3674 148.92 78.3674C137.351 78.3674 127.973 87.7459 127.973 99.3149C127.973 110.884 137.351 120.262 148.92 120.262Z" fill="#FFCCA8"/>
<path d="M155.738 116.827H147.27V127.02H155.738V116.827Z" fill="#FFCCA8"/>
<path d="M135.48 128.1L82.8301 168.142L91.1251 178.672L131.805 154.905V178.672H164.055L172.965 145.965L188.993 154.837C194.018 157.62 200.348 155.512 202.71 150.277L212.693 128.1L200.888 124.432L194.033 135.982C192.863 137.947 190.268 138.472 188.46 137.077C181.838 131.947 166.823 121.23 157.02 121.23C144.135 121.23 135.48 128.1 135.48 128.1Z" fill="#FFCCA8"/>
<path d="M129.675 110.632C133.676 110.632 136.92 107.389 136.92 103.387C136.92 99.386 133.676 96.1423 129.675 96.1423C125.673 96.1423 122.43 99.386 122.43 103.387C122.43 107.389 125.673 110.632 129.675 110.632Z" fill="#FFCCA8"/>
<path d="M168.488 105.81C172.489 105.81 175.733 102.566 175.733 98.5648C175.733 94.5635 172.489 91.3198 168.488 91.3198C164.486 91.3198 161.243 94.5635 161.243 98.5648C161.243 102.566 164.486 105.81 168.488 105.81Z" fill="#FFCCA8"/>
<path d="M127.987 102.652C127.987 102.652 141.69 99.015 147.922 89.655L132.96 84.5325C132.96 84.5325 126.667 93.78 127.98 102.645L127.987 102.652Z" fill="#333333"/>
<path d="M170.063 99.4949C170.063 99.4949 155.873 97.7474 148.35 89.2424L162.6 82.0649C162.6 82.0649 170.16 90.4574 170.063 99.4949Z" fill="#333333"/>
<path d="M142.755 57.8849L129.052 90.0974C128.677 90.9824 129.397 91.9499 130.357 91.8299L165.472 87.5099C166.462 87.3899 166.92 86.2124 166.275 85.4549L142.747 57.8774L142.755 57.8849Z" fill="#076565"/>
<path d="M142.455 62.7149C146.025 62.7149 148.92 59.8204 148.92 56.2499C148.92 52.6794 146.025 49.7849 142.455 49.7849C138.884 49.7849 135.99 52.6794 135.99 56.2499C135.99 59.8204 138.884 62.7149 142.455 62.7149Z" fill="#EF4452"/>
<path d="M209.437 131.175C215.464 131.175 220.35 126.289 220.35 120.262C220.35 114.236 215.464 109.35 209.437 109.35C203.411 109.35 198.525 114.236 198.525 120.262C198.525 126.289 203.411 131.175 209.437 131.175Z" fill="#FFCCA8"/>
<path d="M91.11 182.347C86.415 186.12 80.76 187.432 77.5125 184.185C74.265 180.937 75.09 174.847 79.35 170.587C83.61 166.327 89.7 165.502 92.9475 168.75C96.195 171.997 96.18 178.267 91.11 182.347Z" fill="#FFCCA8"/>
<path d="M211.192 89.0398H207.84V115.387H211.192V89.0398Z" fill="#EF4452"/>
<path d="M218.423 95.2199L209.993 92.1749L202.703 97.3874L203.003 88.4324L195.788 83.1149L204.398 80.6249L207.225 72.1199L212.258 79.5374L221.22 79.6049L215.715 86.6774L218.423 95.2199Z" fill="#EF4452"/>
<path d="M99.2826 181.073C100.899 179.457 100.46 176.396 98.3015 174.238C96.1428 172.079 93.0823 171.64 91.4655 173.256C89.8487 174.873 90.288 177.934 92.4466 180.092C94.6052 182.251 97.6658 182.69 99.2826 181.073Z" fill="#FFCCA8"/>
<path d="M145.778 104.598C146.939 104.527 147.806 103.23 147.713 101.7C147.62 100.17 146.602 98.9876 145.441 99.0583C144.279 99.129 143.412 100.426 143.505 101.956C143.598 103.486 144.616 104.669 145.778 104.598Z" fill="#17202C"/>
<path d="M153.748 103.569C154.91 103.498 155.776 102.201 155.683 100.671C155.59 99.1414 154.573 97.9586 153.411 98.0293C152.249 98.0999 151.383 99.3973 151.476 100.927C151.569 102.457 152.586 103.64 153.748 103.569Z" fill="#17202C"/>
<path d="M121.776 199.107L140.275 203.02L125.779 271.554C124.698 276.661 119.676 279.93 114.569 278.849C109.462 277.769 106.193 272.746 107.273 267.639L121.776 199.107Z" fill="#FFCCA8"/>
<path d="M147.945 179.435L166.633 182.307L157.825 239.609C157.031 244.769 152.199 248.313 147.04 247.52C141.881 246.727 138.336 241.895 139.129 236.736L147.945 179.435Z" fill="#FFCCA8"/>
<path d="M173.265 223.567L166.388 178.717L173.16 143.992L162.24 131.64L151.043 142.815L140.64 132.742L130.665 145.755L129.525 169.65L108.893 204.112L173.265 223.567Z" fill="#EF4452"/>
<path d="M110.588 252.051L129.086 255.963L125.79 271.548C124.709 276.656 119.687 279.924 114.58 278.844C109.473 277.764 106.204 272.741 107.284 267.634L110.588 252.051Z" fill="#F56570"/>
</svg>
