<svg width="1254" height="123" viewBox="0 0 1254 123" fill="none" xmlns="http://www.w3.org/2000/svg">
<mask id="path-1-outside-1_250_3" maskUnits="userSpaceOnUse" x="-3" y="-3" width="1262" height="129" fill="black">
<rect fill="white" x="-3" y="-3" width="1262" height="129"/>
<path d="M83.4062 80.1562H108.719C106.635 94.4271 101.245 105.026 92.5469 111.953C83.849 118.88 71.8958 122.344 56.6875 122.344C38.25 122.344 24.2396 116.745 14.6562 105.547C5.07292 94.349 0.28125 79.7396 0.28125 61.7188C0.28125 42.0312 5.20312 26.9792 15.0469 16.5625C24.8906 6.14583 38.7708 0.9375 56.6875 0.9375C70.4375 0.9375 81.5312 3.95833 89.9688 10C98.4062 16.0417 103.823 24.7917 106.219 36.25H80.5938C80.2812 31.7708 77.9896 27.5781 73.7188 23.6719C69.4479 19.7656 63.8229 17.8125 56.8438 17.8125C47.3646 17.8125 39.8906 21.224 34.4219 28.0469C28.9531 34.8698 26.2188 46.1458 26.2188 61.875C26.3229 74.6875 29.0573 85.1562 34.4219 93.2812C39.7865 101.406 47.0521 105.469 56.2188 105.469C64.5521 105.469 70.9583 103.203 75.4375 98.6719C79.9167 94.1406 82.5729 87.9688 83.4062 80.1562ZM119.969 61.4062C119.969 44.4271 124.656 30.1042 134.031 18.4375C143.406 6.77083 157.781 0.9375 177.156 0.9375C196.323 0.9375 210.594 6.875 219.969 18.75C229.344 30.625 234.031 44.8438 234.031 61.4062C234.031 77.7604 229.214 92.0052 219.578 104.141C209.943 116.276 195.802 122.344 177.156 122.344C158.406 122.344 144.188 116.693 134.5 105.391C124.812 94.0885 119.969 79.4271 119.969 61.4062ZM145.906 61.4062C145.906 74.6354 148.51 85.2865 153.719 93.3594C158.927 101.432 166.74 105.469 177.156 105.469C187.26 105.469 194.943 101.328 200.203 93.0469C205.464 84.7656 208.094 74.2188 208.094 61.4062C208.094 49.3229 205.438 39.0365 200.125 30.5469C194.812 22.0573 187.156 17.8125 177.156 17.8125C166.948 17.8125 159.188 21.6667 153.875 29.375C148.562 37.0833 145.906 47.7604 145.906 61.4062ZM250.438 120V3.28125H305.438C320.646 3.28125 331.974 6.58854 339.422 13.2031C346.87 19.8177 350.594 28.5417 350.594 39.375C350.594 48.3333 348.458 55.651 344.188 61.3281C339.917 67.0052 334.083 70.7292 326.688 72.5C331.583 73.4375 335.568 75.7292 338.641 79.375C341.714 83.0208 343.927 87.4479 345.281 92.6562L353.25 120H324.812L315.906 92.6562C313.927 86.8229 310.438 82.3698 305.438 79.2969C300.438 76.224 294.344 74.6875 287.156 74.6875H276.375V120H250.438ZM276.375 57.8125H300.281C308.094 57.8125 314.109 56.1979 318.328 52.9688C322.547 49.7396 324.656 45.1562 324.656 39.2188C324.656 33.3854 322.677 28.75 318.719 25.3125C314.76 21.875 308.667 20.1562 300.438 20.1562H276.375V57.8125ZM369.5 3.28125H395.438V120H369.5V3.28125ZM419.812 3.28125H446.375L498.406 84.8438V3.28125H524.344V120H497.156L445.75 38.5938V120H419.812V3.28125ZM536.219 3.28125H645.125V20.1562H603.719V120H577.781V20.1562H536.219V3.28125ZM657.312 3.28125H683.25V49.5312H737.625V3.28125H763.562V120H737.625V66.4062H683.25V120H657.312V3.28125ZM787.938 3.28125H813.875V120H787.938V3.28125ZM833.562 61.4062C833.562 44.4271 838.25 30.1042 847.625 18.4375C857 6.77083 871.375 0.9375 890.75 0.9375C909.917 0.9375 924.188 6.875 933.562 18.75C942.938 30.625 947.625 44.8438 947.625 61.4062C947.625 77.7604 942.807 92.0052 933.172 104.141C923.536 116.276 909.396 122.344 890.75 122.344C872 122.344 857.781 116.693 848.094 105.391C838.406 94.0885 833.562 79.4271 833.562 61.4062ZM859.5 61.4062C859.5 74.6354 862.104 85.2865 867.312 93.3594C872.521 101.432 880.333 105.469 890.75 105.469C900.854 105.469 908.536 101.328 913.797 93.0469C919.057 84.7656 921.688 74.2188 921.688 61.4062C921.688 49.3229 919.031 39.0365 913.719 30.5469C908.406 22.0573 900.75 17.8125 890.75 17.8125C880.542 17.8125 872.781 21.6667 867.469 29.375C862.156 37.0833 859.5 47.7604 859.5 61.4062ZM964.031 3.28125H990.594L1042.62 84.8438V3.28125H1068.56V120H1041.38L989.969 38.5938V120H964.031V3.28125ZM1092.78 3.28125H1118.72V120H1092.78V3.28125ZM1159.97 120H1133.41L1177.31 3.28125H1209.97L1253.88 120H1227.31L1216.53 90.9375H1170.75L1159.97 120ZM1210.2 74.0625L1193.56 29.2188L1177 74.0625H1210.2Z"/>
</mask>
<path d="M83.4062 80.1562H108.719C106.635 94.4271 101.245 105.026 92.5469 111.953C83.849 118.88 71.8958 122.344 56.6875 122.344C38.25 122.344 24.2396 116.745 14.6562 105.547C5.07292 94.349 0.28125 79.7396 0.28125 61.7188C0.28125 42.0312 5.20312 26.9792 15.0469 16.5625C24.8906 6.14583 38.7708 0.9375 56.6875 0.9375C70.4375 0.9375 81.5312 3.95833 89.9688 10C98.4062 16.0417 103.823 24.7917 106.219 36.25H80.5938C80.2812 31.7708 77.9896 27.5781 73.7188 23.6719C69.4479 19.7656 63.8229 17.8125 56.8438 17.8125C47.3646 17.8125 39.8906 21.224 34.4219 28.0469C28.9531 34.8698 26.2188 46.1458 26.2188 61.875C26.3229 74.6875 29.0573 85.1562 34.4219 93.2812C39.7865 101.406 47.0521 105.469 56.2188 105.469C64.5521 105.469 70.9583 103.203 75.4375 98.6719C79.9167 94.1406 82.5729 87.9688 83.4062 80.1562ZM119.969 61.4062C119.969 44.4271 124.656 30.1042 134.031 18.4375C143.406 6.77083 157.781 0.9375 177.156 0.9375C196.323 0.9375 210.594 6.875 219.969 18.75C229.344 30.625 234.031 44.8438 234.031 61.4062C234.031 77.7604 229.214 92.0052 219.578 104.141C209.943 116.276 195.802 122.344 177.156 122.344C158.406 122.344 144.188 116.693 134.5 105.391C124.812 94.0885 119.969 79.4271 119.969 61.4062ZM145.906 61.4062C145.906 74.6354 148.51 85.2865 153.719 93.3594C158.927 101.432 166.74 105.469 177.156 105.469C187.26 105.469 194.943 101.328 200.203 93.0469C205.464 84.7656 208.094 74.2188 208.094 61.4062C208.094 49.3229 205.438 39.0365 200.125 30.5469C194.812 22.0573 187.156 17.8125 177.156 17.8125C166.948 17.8125 159.188 21.6667 153.875 29.375C148.562 37.0833 145.906 47.7604 145.906 61.4062ZM250.438 120V3.28125H305.438C320.646 3.28125 331.974 6.58854 339.422 13.2031C346.87 19.8177 350.594 28.5417 350.594 39.375C350.594 48.3333 348.458 55.651 344.188 61.3281C339.917 67.0052 334.083 70.7292 326.688 72.5C331.583 73.4375 335.568 75.7292 338.641 79.375C341.714 83.0208 343.927 87.4479 345.281 92.6562L353.25 120H324.812L315.906 92.6562C313.927 86.8229 310.438 82.3698 305.438 79.2969C300.438 76.224 294.344 74.6875 287.156 74.6875H276.375V120H250.438ZM276.375 57.8125H300.281C308.094 57.8125 314.109 56.1979 318.328 52.9688C322.547 49.7396 324.656 45.1562 324.656 39.2188C324.656 33.3854 322.677 28.75 318.719 25.3125C314.76 21.875 308.667 20.1562 300.438 20.1562H276.375V57.8125ZM369.5 3.28125H395.438V120H369.5V3.28125ZM419.812 3.28125H446.375L498.406 84.8438V3.28125H524.344V120H497.156L445.75 38.5938V120H419.812V3.28125ZM536.219 3.28125H645.125V20.1562H603.719V120H577.781V20.1562H536.219V3.28125ZM657.312 3.28125H683.25V49.5312H737.625V3.28125H763.562V120H737.625V66.4062H683.25V120H657.312V3.28125ZM787.938 3.28125H813.875V120H787.938V3.28125ZM833.562 61.4062C833.562 44.4271 838.25 30.1042 847.625 18.4375C857 6.77083 871.375 0.9375 890.75 0.9375C909.917 0.9375 924.188 6.875 933.562 18.75C942.938 30.625 947.625 44.8438 947.625 61.4062C947.625 77.7604 942.807 92.0052 933.172 104.141C923.536 116.276 909.396 122.344 890.75 122.344C872 122.344 857.781 116.693 848.094 105.391C838.406 94.0885 833.562 79.4271 833.562 61.4062ZM859.5 61.4062C859.5 74.6354 862.104 85.2865 867.312 93.3594C872.521 101.432 880.333 105.469 890.75 105.469C900.854 105.469 908.536 101.328 913.797 93.0469C919.057 84.7656 921.688 74.2188 921.688 61.4062C921.688 49.3229 919.031 39.0365 913.719 30.5469C908.406 22.0573 900.75 17.8125 890.75 17.8125C880.542 17.8125 872.781 21.6667 867.469 29.375C862.156 37.0833 859.5 47.7604 859.5 61.4062ZM964.031 3.28125H990.594L1042.62 84.8438V3.28125H1068.56V120H1041.38L989.969 38.5938V120H964.031V3.28125ZM1092.78 3.28125H1118.72V120H1092.78V3.28125ZM1159.97 120H1133.41L1177.31 3.28125H1209.97L1253.88 120H1227.31L1216.53 90.9375H1170.75L1159.97 120ZM1210.2 74.0625L1193.56 29.2188L1177 74.0625H1210.2Z" fill="#88D7D7"/>
<path d="M83.4062 80.1562V77.1562H80.7092L80.4232 79.8381L83.4062 80.1562ZM108.719 80.1562L111.687 80.5896L112.189 77.1562H108.719V80.1562ZM106.219 36.25V39.25H109.911L109.155 35.636L106.219 36.25ZM80.5938 36.25L77.601 36.4588L77.7958 39.25H80.5938V36.25ZM73.7188 23.6719L71.694 25.8856L73.7188 23.6719ZM26.2188 61.875H23.2188V61.8872L23.2188 61.8994L26.2188 61.875ZM75.4375 98.6719L77.571 100.781L75.4375 98.6719ZM83.4062 83.1562H108.719V77.1562H83.4062V83.1562ZM105.75 79.7229C103.743 93.4709 98.6188 103.282 90.6779 109.606L94.4158 114.3C103.871 106.77 109.528 95.3833 111.687 80.5896L105.75 79.7229ZM90.6779 109.606C82.6769 115.979 71.4644 119.344 56.6875 119.344V125.344C72.3273 125.344 85.0211 121.782 94.4158 114.3L90.6779 109.606ZM56.6875 119.344C38.8883 119.344 25.8103 113.966 16.9355 103.596L12.377 107.498C22.6689 119.523 37.6117 125.344 56.6875 125.344V119.344ZM16.9355 103.596C7.91473 93.0557 3.28125 79.1899 3.28125 61.7188H-2.71875C-2.71875 80.2893 2.2311 95.6423 12.377 107.498L16.9355 103.596ZM3.28125 61.7188C3.28125 42.5074 8.08013 28.3026 17.2273 18.623L12.8664 14.502C2.32612 25.6558 -2.71875 41.5551 -2.71875 61.7188H3.28125ZM17.2273 18.623C26.3692 8.94905 39.376 3.9375 56.6875 3.9375V-2.0625C38.1657 -2.0625 23.412 3.34261 12.8664 14.502L17.2273 18.623ZM56.6875 3.9375C70.0126 3.9375 80.4365 6.86422 88.2222 12.4392L91.7153 7.56084C82.626 1.05244 70.8624 -2.0625 56.6875 -2.0625V3.9375ZM88.2222 12.4392C95.969 17.9862 101.019 26.0402 103.282 36.864L109.155 35.636C106.627 23.5431 100.844 14.0971 91.7153 7.56084L88.2222 12.4392ZM106.219 33.25H80.5938V39.25H106.219V33.25ZM83.5865 36.0412C83.2063 30.5914 80.4119 25.7281 75.7435 21.4582L71.694 25.8856C75.5672 29.4282 77.3562 32.9502 77.601 36.4588L83.5865 36.0412ZM75.7435 21.4582C70.8103 16.9461 64.4097 14.8125 56.8438 14.8125V20.8125C63.2361 20.8125 68.0855 22.5851 71.694 25.8856L75.7435 21.4582ZM56.8438 14.8125C46.5418 14.8125 38.1718 18.5717 32.081 26.1706L36.7627 29.9231C41.6095 23.8762 48.1873 20.8125 56.8438 20.8125V14.8125ZM32.081 26.1706C25.9587 33.8089 23.2188 45.9469 23.2188 61.875H29.2188C29.2188 46.3448 31.9475 35.9307 36.7627 29.9231L32.081 26.1706ZM23.2188 61.8994C23.3263 75.1115 26.1481 86.1948 31.9183 94.9342L36.9254 91.6283C31.9665 84.1177 29.3196 74.2635 29.2187 61.8506L23.2188 61.8994ZM31.9183 94.9342C37.797 103.838 45.9718 108.469 56.2188 108.469V102.469C48.1324 102.469 41.7759 98.9746 36.9254 91.6283L31.9183 94.9342ZM56.2188 108.469C65.0965 108.469 72.3701 106.042 77.571 100.781L73.304 96.5629C69.5466 100.364 64.0076 102.469 56.2188 102.469V108.469ZM77.571 100.781C82.6312 95.6619 85.5012 88.801 86.3893 80.4744L80.4232 79.8381C79.6447 87.1365 77.2021 92.6194 73.304 96.5629L77.571 100.781ZM122.969 61.4062C122.969 45.0136 127.48 31.3796 136.37 20.3167L131.693 16.5583C121.833 28.8287 116.969 43.8406 116.969 61.4062H122.969ZM136.37 20.3167C145.016 9.55734 158.4 3.9375 177.156 3.9375V-2.0625C157.162 -2.0625 141.797 3.98432 131.693 16.5583L136.37 20.3167ZM177.156 3.9375C195.673 3.9375 208.956 9.64157 217.614 20.6089L222.323 16.8911C212.232 4.10843 196.973 -2.0625 177.156 -2.0625V3.9375ZM217.614 20.6089C226.531 31.9035 231.031 45.4504 231.031 61.4062H237.031C237.031 44.2371 232.157 29.3465 222.323 16.8911L217.614 20.6089ZM231.031 61.4062C231.031 77.1233 226.418 90.7011 217.229 102.275L221.928 106.006C232.009 93.3094 237.031 78.3975 237.031 61.4062H231.031ZM217.229 102.275C208.28 113.546 195.094 119.344 177.156 119.344V125.344C196.51 125.344 211.606 119.006 221.928 106.006L217.229 102.275ZM177.156 119.344C159.036 119.344 145.753 113.909 136.778 103.438L132.222 107.343C142.622 119.476 157.776 125.344 177.156 125.344V119.344ZM136.778 103.438C127.649 92.7885 122.969 78.8683 122.969 61.4062H116.969C116.969 79.9858 121.976 95.3886 132.222 107.343L136.778 103.438ZM142.906 61.4062C142.906 75.0023 145.58 86.2775 151.198 94.9858L156.24 91.733C151.441 84.2954 148.906 74.2685 148.906 61.4062H142.906ZM151.198 94.9858C157.012 103.998 165.823 108.469 177.156 108.469V102.469C167.656 102.469 160.842 98.867 156.24 91.733L151.198 94.9858ZM177.156 108.469C188.25 108.469 196.905 103.834 202.735 94.6554L197.671 91.4383C192.981 98.8221 186.271 102.469 177.156 102.469V108.469ZM202.735 94.6554C208.382 85.7667 211.094 74.6172 211.094 61.4062H205.094C205.094 73.8203 202.545 83.7645 197.671 91.4383L202.735 94.6554ZM211.094 61.4062C211.094 48.8771 208.336 38.0125 202.668 28.9555L197.582 32.1383C202.539 40.0604 205.094 49.7687 205.094 61.4062H211.094ZM202.668 28.9555C196.808 19.5911 188.192 14.8125 177.156 14.8125V20.8125C186.121 20.8125 192.817 24.5234 197.582 32.1383L202.668 28.9555ZM177.156 14.8125C166.066 14.8125 157.334 19.0691 151.405 27.6726L156.345 31.0774C161.041 24.2642 167.83 20.8125 177.156 20.8125V14.8125ZM151.405 27.6726C145.623 36.0626 142.906 47.4173 142.906 61.4062H148.906C148.906 48.1036 151.502 38.1041 156.345 31.0774L151.405 27.6726ZM250.438 120H247.438V123H250.438V120ZM250.438 3.28125V0.28125H247.438V3.28125H250.438ZM326.688 72.5L325.989 69.5825L326.123 75.4465L326.688 72.5ZM338.641 79.375L340.935 77.4416L338.641 79.375ZM345.281 92.6562L342.378 93.4112L342.389 93.4536L342.401 93.4956L345.281 92.6562ZM353.25 120V123H357.249L356.13 119.161L353.25 120ZM324.812 120L321.96 120.929L322.635 123H324.812V120ZM315.906 92.6562L318.759 91.7271L318.753 91.7097L318.747 91.6924L315.906 92.6562ZM305.438 79.2969L303.867 81.8528L305.438 79.2969ZM276.375 74.6875V71.6875H273.375V74.6875H276.375ZM276.375 120V123H279.375V120H276.375ZM276.375 57.8125H273.375V60.8125H276.375V57.8125ZM318.719 25.3125L316.752 27.5776L318.719 25.3125ZM276.375 20.1562V17.1562H273.375V20.1562H276.375ZM253.438 120V3.28125H247.438V120H253.438ZM250.438 6.28125H305.438V0.28125H250.438V6.28125ZM305.438 6.28125C320.285 6.28125 330.757 9.52025 337.43 15.4462L341.414 10.96C333.191 3.65683 321.007 0.28125 305.438 0.28125V6.28125ZM337.43 15.4462C344.176 21.4378 347.594 29.3147 347.594 39.375H353.594C353.594 27.7687 349.563 18.1977 341.414 10.96L337.43 15.4462ZM347.594 39.375C347.594 47.8546 345.578 54.4898 341.79 59.5246L346.585 63.1316C351.339 56.8122 353.594 48.812 353.594 39.375H347.594ZM341.79 59.5246C337.97 64.6032 332.758 67.9618 325.989 69.5825L327.386 75.4175C335.409 73.4966 341.864 69.4072 346.585 63.1316L341.79 59.5246ZM326.123 75.4465C330.377 76.2609 333.738 78.2139 336.347 81.3084L340.935 77.4416C337.397 73.2445 332.79 70.6141 327.252 69.5535L326.123 75.4465ZM336.347 81.3084C339.096 84.5702 341.122 88.5802 342.378 93.4112L348.185 91.9013C346.732 86.3156 344.331 81.4715 340.935 77.4416L336.347 81.3084ZM342.401 93.4956L350.37 120.839L356.13 119.161L348.161 91.8169L342.401 93.4956ZM353.25 117H324.812V123H353.25V117ZM327.665 119.071L318.759 91.7271L313.054 93.5854L321.96 120.929L327.665 119.071ZM318.747 91.6924C316.555 85.2321 312.636 80.1994 307.008 76.741L303.867 81.8528C308.239 84.5401 311.299 88.4137 313.065 93.6201L318.747 91.6924ZM307.008 76.741C301.44 73.3187 294.774 71.6875 287.156 71.6875V77.6875C293.914 77.6875 299.435 79.1292 303.867 81.8528L307.008 76.741ZM287.156 71.6875H276.375V77.6875H287.156V71.6875ZM273.375 74.6875V120H279.375V74.6875H273.375ZM276.375 117H250.438V123H276.375V117ZM276.375 60.8125H300.281V54.8125H276.375V60.8125ZM300.281 60.8125C308.455 60.8125 315.214 59.1304 320.152 55.351L316.505 50.5865C313.005 53.2655 307.732 54.8125 300.281 54.8125V60.8125ZM320.152 55.351C325.206 51.4819 327.656 45.9645 327.656 39.2188H321.656C321.656 44.348 319.887 47.9973 316.505 50.5865L320.152 55.351ZM327.656 39.2188C327.656 32.6262 325.379 27.1229 320.686 23.0474L316.752 27.5776C319.975 30.3771 321.656 34.1447 321.656 39.2188H327.656ZM320.686 23.0474C315.945 18.9304 308.998 17.1562 300.438 17.1562V23.1562C308.335 23.1562 313.576 24.8196 316.752 27.5776L320.686 23.0474ZM300.438 17.1562H276.375V23.1562H300.438V17.1562ZM273.375 20.1562V57.8125H279.375V20.1562H273.375ZM369.5 3.28125V0.28125H366.5V3.28125H369.5ZM395.438 3.28125H398.438V0.28125H395.438V3.28125ZM395.438 120V123H398.438V120H395.438ZM369.5 120H366.5V123H369.5V120ZM369.5 6.28125H395.438V0.28125H369.5V6.28125ZM392.438 3.28125V120H398.438V3.28125H392.438ZM395.438 117H369.5V123H395.438V117ZM372.5 120V3.28125H366.5V120H372.5ZM419.812 3.28125V0.28125H416.812V3.28125H419.812ZM446.375 3.28125L448.904 1.6678L448.02 0.28125H446.375V3.28125ZM498.406 84.8438L495.877 86.4572L501.406 95.1246V84.8438H498.406ZM498.406 3.28125V0.28125H495.406V3.28125H498.406ZM524.344 3.28125H527.344V0.28125H524.344V3.28125ZM524.344 120V123H527.344V120H524.344ZM497.156 120L494.62 121.602L495.503 123H497.156V120ZM445.75 38.5938L448.287 36.992L442.75 28.2243V38.5938H445.75ZM445.75 120V123H448.75V120H445.75ZM419.812 120H416.812V123H419.812V120ZM419.812 6.28125H446.375V0.28125H419.812V6.28125ZM443.846 4.8947L495.877 86.4572L500.935 83.2303L448.904 1.6678L443.846 4.8947ZM501.406 84.8438V3.28125H495.406V84.8438H501.406ZM498.406 6.28125H524.344V0.28125H498.406V6.28125ZM521.344 3.28125V120H527.344V3.28125H521.344ZM524.344 117H497.156V123H524.344V117ZM499.693 118.398L448.287 36.992L443.213 40.1955L494.62 121.602L499.693 118.398ZM442.75 38.5938V120H448.75V38.5938H442.75ZM445.75 117H419.812V123H445.75V117ZM422.812 120V3.28125H416.812V120H422.812ZM536.219 3.28125V0.28125H533.219V3.28125H536.219ZM645.125 3.28125H648.125V0.28125H645.125V3.28125ZM645.125 20.1562V23.1562H648.125V20.1562H645.125ZM603.719 20.1562V17.1562H600.719V20.1562H603.719ZM603.719 120V123H606.719V120H603.719ZM577.781 120H574.781V123H577.781V120ZM577.781 20.1562H580.781V17.1562H577.781V20.1562ZM536.219 20.1562H533.219V23.1562H536.219V20.1562ZM536.219 6.28125H645.125V0.28125H536.219V6.28125ZM642.125 3.28125V20.1562H648.125V3.28125H642.125ZM645.125 17.1562H603.719V23.1562H645.125V17.1562ZM600.719 20.1562V120H606.719V20.1562H600.719ZM603.719 117H577.781V123H603.719V117ZM580.781 120V20.1562H574.781V120H580.781ZM577.781 17.1562H536.219V23.1562H577.781V17.1562ZM539.219 20.1562V3.28125H533.219V20.1562H539.219ZM657.312 3.28125V0.28125H654.312V3.28125H657.312ZM683.25 3.28125H686.25V0.28125H683.25V3.28125ZM683.25 49.5312H680.25V52.5312H683.25V49.5312ZM737.625 49.5312V52.5312H740.625V49.5312H737.625ZM737.625 3.28125V0.28125H734.625V3.28125H737.625ZM763.562 3.28125H766.562V0.28125H763.562V3.28125ZM763.562 120V123H766.562V120H763.562ZM737.625 120H734.625V123H737.625V120ZM737.625 66.4062H740.625V63.4062H737.625V66.4062ZM683.25 66.4062V63.4062H680.25V66.4062H683.25ZM683.25 120V123H686.25V120H683.25ZM657.312 120H654.312V123H657.312V120ZM657.312 6.28125H683.25V0.28125H657.312V6.28125ZM680.25 3.28125V49.5312H686.25V3.28125H680.25ZM683.25 52.5312H737.625V46.5312H683.25V52.5312ZM740.625 49.5312V3.28125H734.625V49.5312H740.625ZM737.625 6.28125H763.562V0.28125H737.625V6.28125ZM760.562 3.28125V120H766.562V3.28125H760.562ZM763.562 117H737.625V123H763.562V117ZM740.625 120V66.4062H734.625V120H740.625ZM737.625 63.4062H683.25V69.4062H737.625V63.4062ZM680.25 66.4062V120H686.25V66.4062H680.25ZM683.25 117H657.312V123H683.25V117ZM660.312 120V3.28125H654.312V120H660.312ZM787.938 3.28125V0.28125H784.938V3.28125H787.938ZM813.875 3.28125H816.875V0.28125H813.875V3.28125ZM813.875 120V123H816.875V120H813.875ZM787.938 120H784.938V123H787.938V120ZM787.938 6.28125H813.875V0.28125H787.938V6.28125ZM810.875 3.28125V120H816.875V3.28125H810.875ZM813.875 117H787.938V123H813.875V117ZM790.938 120V3.28125H784.938V120H790.938ZM836.562 61.4062C836.562 45.0136 841.074 31.3796 849.964 20.3167L845.286 16.5583C835.426 28.8287 830.562 43.8406 830.562 61.4062H836.562ZM849.964 20.3167C858.609 9.55734 871.994 3.9375 890.75 3.9375V-2.0625C870.756 -2.0625 855.391 3.98432 845.286 16.5583L849.964 20.3167ZM890.75 3.9375C909.267 3.9375 922.549 9.64157 931.208 20.6089L935.917 16.8911C925.826 4.10843 910.567 -2.0625 890.75 -2.0625V3.9375ZM931.208 20.6089C940.125 31.9035 944.625 45.4504 944.625 61.4062H950.625C950.625 44.2371 945.75 29.3465 935.917 16.8911L931.208 20.6089ZM944.625 61.4062C944.625 77.1233 940.012 90.7011 930.822 102.275L935.521 106.006C945.602 93.3094 950.625 78.3975 950.625 61.4062H944.625ZM930.822 102.275C921.873 113.546 908.687 119.344 890.75 119.344V125.344C910.104 125.344 925.2 119.006 935.521 106.006L930.822 102.275ZM890.75 119.344C872.63 119.344 859.347 113.909 850.372 103.438L845.816 107.343C856.216 119.476 871.37 125.344 890.75 125.344V119.344ZM850.372 103.438C841.243 92.7885 836.562 78.8683 836.562 61.4062H830.562C830.562 79.9858 835.569 95.3886 845.816 107.343L850.372 103.438ZM856.5 61.4062C856.5 75.0023 859.173 86.2775 864.792 94.9858L869.833 91.733C865.035 84.2954 862.5 74.2685 862.5 61.4062H856.5ZM864.792 94.9858C870.606 103.998 879.417 108.469 890.75 108.469V102.469C881.25 102.469 874.436 98.867 869.833 91.733L864.792 94.9858ZM890.75 108.469C901.844 108.469 910.499 103.834 916.329 94.6554L911.265 91.4383C906.574 98.8221 899.865 102.469 890.75 102.469V108.469ZM916.329 94.6554C921.975 85.7667 924.688 74.6172 924.688 61.4062H918.688C918.688 73.8203 916.139 83.7645 911.265 91.4383L916.329 94.6554ZM924.688 61.4062C924.688 48.8771 921.929 38.0125 916.262 28.9555L911.176 32.1383C916.133 40.0604 918.688 49.7687 918.688 61.4062H924.688ZM916.262 28.9555C910.402 19.5911 901.786 14.8125 890.75 14.8125V20.8125C899.714 20.8125 906.411 24.5234 911.176 32.1383L916.262 28.9555ZM890.75 14.8125C879.66 14.8125 870.928 19.0691 864.999 27.6726L869.939 31.0774C874.635 24.2642 881.423 20.8125 890.75 20.8125V14.8125ZM864.999 27.6726C859.216 36.0626 856.5 47.4173 856.5 61.4062H862.5C862.5 48.1036 865.096 38.1041 869.939 31.0774L864.999 27.6726ZM964.031 3.28125V0.28125H961.031V3.28125H964.031ZM990.594 3.28125L993.123 1.6678L992.238 0.28125H990.594V3.28125ZM1042.62 84.8438L1040.1 86.4572L1045.62 95.1246V84.8438H1042.62ZM1042.62 3.28125V0.28125H1039.62V3.28125H1042.62ZM1068.56 3.28125H1071.56V0.28125H1068.56V3.28125ZM1068.56 120V123H1071.56V120H1068.56ZM1041.38 120L1038.84 121.602L1039.72 123H1041.38V120ZM989.969 38.5938L992.505 36.992L986.969 28.2243V38.5938H989.969ZM989.969 120V123H992.969V120H989.969ZM964.031 120H961.031V123H964.031V120ZM964.031 6.28125H990.594V0.28125H964.031V6.28125ZM988.065 4.8947L1040.1 86.4572L1045.15 83.2303L993.123 1.6678L988.065 4.8947ZM1045.62 84.8438V3.28125H1039.62V84.8438H1045.62ZM1042.62 6.28125H1068.56V0.28125H1042.62V6.28125ZM1065.56 3.28125V120H1071.56V3.28125H1065.56ZM1068.56 117H1041.38V123H1068.56V117ZM1043.91 118.398L992.505 36.992L987.432 40.1955L1038.84 121.602L1043.91 118.398ZM986.969 38.5938V120H992.969V38.5938H986.969ZM989.969 117H964.031V123H989.969V117ZM967.031 120V3.28125H961.031V120H967.031ZM1092.78 3.28125V0.28125H1089.78V3.28125H1092.78ZM1118.72 3.28125H1121.72V0.28125H1118.72V3.28125ZM1118.72 120V123H1121.72V120H1118.72ZM1092.78 120H1089.78V123H1092.78V120ZM1092.78 6.28125H1118.72V0.28125H1092.78V6.28125ZM1115.72 3.28125V120H1121.72V3.28125H1115.72ZM1118.72 117H1092.78V123H1118.72V117ZM1095.78 120V3.28125H1089.78V120H1095.78ZM1159.97 120V123H1162.06L1162.78 121.043L1159.97 120ZM1133.41 120L1130.6 118.944L1129.07 123H1133.41V120ZM1177.31 3.28125V0.28125H1175.24L1174.5 2.225L1177.31 3.28125ZM1209.97 3.28125L1212.78 2.225L1212.05 0.28125H1209.97V3.28125ZM1253.88 120V123H1258.21L1256.68 118.944L1253.88 120ZM1227.31 120L1224.5 121.043L1225.23 123H1227.31V120ZM1216.53 90.9375L1219.34 89.8941L1218.62 87.9375H1216.53V90.9375ZM1170.75 90.9375V87.9375H1168.66L1167.94 89.8941L1170.75 90.9375ZM1210.2 74.0625V77.0625H1214.52L1213.02 73.0188L1210.2 74.0625ZM1193.56 29.2188L1196.38 28.1751L1193.56 20.5777L1190.75 28.1794L1193.56 29.2188ZM1177 74.0625L1174.19 73.0231L1172.69 77.0625H1177V74.0625ZM1159.97 117H1133.41V123H1159.97V117ZM1136.21 121.056L1180.12 4.3375L1174.5 2.225L1130.6 118.944L1136.21 121.056ZM1177.31 6.28125H1209.97V0.28125H1177.31V6.28125ZM1207.16 4.3375L1251.07 121.056L1256.68 118.944L1212.78 2.225L1207.16 4.3375ZM1253.88 117H1227.31V123H1253.88V117ZM1230.13 118.957L1219.34 89.8941L1213.72 91.9809L1224.5 121.043L1230.13 118.957ZM1216.53 87.9375H1170.75V93.9375H1216.53V87.9375ZM1167.94 89.8941L1157.16 118.957L1162.78 121.043L1173.56 91.9809L1167.94 89.8941ZM1213.02 73.0188L1196.38 28.1751L1190.75 30.2624L1207.39 75.1062L1213.02 73.0188ZM1190.75 28.1794L1174.19 73.0231L1179.81 75.1019L1196.38 30.2581L1190.75 28.1794ZM1177 77.0625H1210.2V71.0625H1177V77.0625Z" fill="#88D7D7" mask="url(#path-1-outside-1_250_3)"/>
</svg>
