<svg width="160" height="160" viewBox="0 0 160 160" fill="none" xmlns="http://www.w3.org/2000/svg">
<g clip-path="url(#clip0_231_2)">
<path d="M75.8807 81.9557C85.0866 73.2514 78.3126 51.138 60.7506 32.5641C43.1886 13.9902 21.489 5.98937 12.2831 14.6937C3.0772 23.3981 9.85117 45.5115 27.4132 64.0853C44.9752 82.6592 66.6748 90.6601 75.8807 81.9557Z" fill="#88D7D7"/>
<path d="M60.8693 104.167C76.373 91.4849 83.8455 74.9744 77.5595 67.29C71.2735 59.6057 53.6095 63.6575 38.1057 76.3399C22.6019 89.0224 15.1295 105.533 21.4154 113.217C27.7014 120.902 45.3655 116.85 60.8693 104.167Z" fill="#88D7D7"/>
<path d="M132.587 64.0829C150.149 45.509 156.923 23.3956 147.717 14.6913C138.512 5.98693 116.812 13.9878 99.2499 32.5617C81.6879 51.1355 74.9139 73.2489 84.1198 81.9533C93.3257 90.6576 115.025 82.6568 132.587 64.0829Z" fill="#88D7D7"/>
<path d="M138.584 113.22C144.87 105.536 137.398 89.0255 121.894 76.343C106.39 63.6606 88.7259 59.6088 82.4399 67.2932C76.1539 74.9775 83.6264 91.488 99.1302 104.17C114.634 116.853 132.298 120.905 138.584 113.22Z" fill="#88D7D7"/>
<path d="M79.424 64.14C85.5941 64.14 90.596 59.1381 90.596 52.968C90.596 46.7979 85.5941 41.796 79.424 41.796C73.2539 41.796 68.252 46.7979 68.252 52.968C68.252 59.1381 73.2539 64.14 79.424 64.14Z" fill="#FFCCA8"/>
<path d="M83.06 62.308H78.544V67.744H83.06V62.308Z" fill="#FFCCA8"/>
<path d="M72.256 68.32L44.176 89.676L48.6 95.292L70.296 82.616V95.292H87.496L92.248 77.848L100.796 82.58C103.476 84.064 106.852 82.94 108.112 80.148L113.436 68.32L107.14 66.364L103.484 72.524C102.86 73.572 101.476 73.852 100.512 73.108C96.98 70.372 88.972 64.656 83.744 64.656C76.872 64.656 72.256 68.32 72.256 68.32Z" fill="#FFCCA8"/>
<path d="M69.16 59.004C71.294 59.004 73.024 57.274 73.024 55.14C73.024 53.006 71.294 51.276 69.16 51.276C67.026 51.276 65.296 53.006 65.296 55.14C65.296 57.274 67.026 59.004 69.16 59.004Z" fill="#FFCCA8"/>
<path d="M89.86 56.432C91.994 56.432 93.724 54.702 93.724 52.568C93.724 50.434 91.994 48.704 89.86 48.704C87.726 48.704 85.996 50.434 85.996 52.568C85.996 54.702 87.726 56.432 89.86 56.432Z" fill="#FFCCA8"/>
<path d="M68.26 54.748C68.26 54.748 75.568 52.808 78.892 47.816L70.912 45.084C70.912 45.084 67.556 50.016 68.256 54.744L68.26 54.748Z" fill="#333333"/>
<path d="M90.7 53.064C90.7 53.064 83.132 52.132 79.12 47.596L86.72 43.768C86.72 43.768 90.752 48.244 90.7 53.064Z" fill="#333333"/>
<path d="M76.136 30.872L68.828 48.052C68.628 48.524 69.012 49.04 69.524 48.976L88.252 46.672C88.78 46.608 89.024 45.98 88.68 45.576L76.132 30.868L76.136 30.872Z" fill="#076565"/>
<path d="M75.976 33.448C77.8803 33.448 79.424 31.9043 79.424 30C79.424 28.0957 77.8803 26.552 75.976 26.552C74.0717 26.552 72.528 28.0957 72.528 30C72.528 31.9043 74.0717 33.448 75.976 33.448Z" fill="#EF4452"/>
<path d="M111.7 69.96C114.914 69.96 117.52 67.3543 117.52 64.14C117.52 60.9257 114.914 58.32 111.7 58.32C108.486 58.32 105.88 60.9257 105.88 64.14C105.88 67.3543 108.486 69.96 111.7 69.96Z" fill="#FFCCA8"/>
<path d="M48.592 97.252C46.088 99.264 43.072 99.964 41.34 98.232C39.608 96.5 40.048 93.252 42.32 90.98C44.592 88.708 47.84 88.268 49.572 90C51.304 91.732 51.296 95.076 48.592 97.252Z" fill="#FFCCA8"/>
<path d="M112.636 47.488H110.848V61.54H112.636V47.488Z" fill="#EF4452"/>
<path d="M116.492 50.784L111.996 49.16L108.108 51.94L108.268 47.164L104.42 44.328L109.012 43L110.52 38.464L113.204 42.42L117.984 42.456L115.048 46.228L116.492 50.784Z" fill="#EF4452"/>
<path d="M52.9508 96.5726C53.813 95.7103 53.5788 94.078 52.4275 92.9267C51.2762 91.7755 49.6439 91.5412 48.7817 92.4035C47.9194 93.2657 48.1537 94.898 49.3049 96.0493C50.4562 97.2006 52.0885 97.4348 52.9508 96.5726Z" fill="#FFCCA8"/>
<path d="M77.748 55.7858C78.3677 55.7481 78.8297 55.0561 78.7801 54.2403C78.7305 53.4244 78.1879 52.7935 77.5683 52.8312C76.9487 52.8689 76.4866 53.5609 76.5362 54.3767C76.5859 55.1926 77.1284 55.8235 77.748 55.7858Z" fill="#17202C"/>
<path d="M81.9989 55.2369C82.6185 55.1992 83.0806 54.5072 83.031 53.6913C82.9814 52.8755 82.4388 52.2446 81.8192 52.2823C81.1996 52.32 80.7375 53.012 80.7871 53.8278C80.8368 54.6437 81.3793 55.2745 81.9989 55.2369Z" fill="#17202C"/>
<path d="M64.9474 106.191L74.8131 108.277L67.0819 144.829C66.5058 147.552 63.827 149.296 61.1033 148.72C58.3795 148.144 56.6361 145.465 57.2123 142.741L64.9474 106.191Z" fill="#FFCCA8"/>
<path d="M78.9039 95.6985L88.8708 97.2306L84.173 127.792C83.75 130.543 81.1729 132.434 78.4212 132.011C75.6695 131.588 73.7791 129.011 74.2021 126.259L78.9039 95.6985Z" fill="#FFCCA8"/>
<path d="M92.408 119.236L88.74 95.316L92.352 76.796L86.528 70.208L80.556 76.168L75.008 70.796L69.688 77.736L69.08 90.48L58.076 108.86L92.408 119.236Z" fill="#EF4452"/>
<path d="M58.9803 134.427L68.846 136.514L67.0879 144.826C66.5117 147.55 63.833 149.293 61.1092 148.717C58.3855 148.141 56.6421 145.462 57.2182 142.738L58.9803 134.427Z" fill="#F56570"/>
</g>
<defs>
<clipPath id="clip0_231_2">
<rect width="160" height="160" fill="white"/>
</clipPath>
</defs>
</svg>
